<svg width="100%" height="100%" viewBox="0 0 62 52" version="1.1" xmlns="http://www.w3.org/2000/svg" xmlns:xlink="http://www.w3.org/1999/xlink" xml:space="preserve" xmlns:serif="http://www.serif.com/" style="fill-rule:evenodd;clip-rule:evenodd;stroke-miterlimit:10;">
  <g id="icons" opacity="0.5">
    <path d="M48.118,31.628l-6.765,0l0,-8.233" style="fill:none;stroke:#202432;stroke-width:2px;" />
    <path d="M36.647,20.535l14.353,0l0,20.465l-40,0l0,-20.465l14.353,0" style="fill:none;stroke:#202432;stroke-width:2px;" />
    <path d="M31,1c-4.418,0 -8.471,3.866 -8.471,8.372c0,6.426 6.342,7.879 8.471,14.884c2.129,-7.005 8.471,-8.458 8.471,-14.884c0,-4.506 -4.053,-8.372 -8.471,-8.372Z" style="fill:none;stroke:#202432;stroke-width:2px;stroke-linejoin:round;" />
    <ellipse cx="30.988" cy="9.36" rx="2.835" ry="2.779" style="fill:none;stroke:#202432;stroke-width:2px;stroke-linejoin:round;" />
    <path d="M37.588,23.395l0,4.582l-8.465,0l-3.77,3.721l-11.471,0" style="fill:none;stroke:#202432;stroke-width:2px;" />
    <path d="M25.353,38.14l0,-2.721l1.882,0l3.765,-3.721l6.588,0l0,6.442" style="fill:none;stroke:#202432;stroke-width:2px;" />
    <path d="M13.882,35.419l7.706,0l0,2.721" style="fill:none;stroke:#202432;stroke-width:2px;" />
    <path d="M13.882,27.977l7.706,0l0,-4.582" style="fill:none;stroke:#202432;stroke-width:2px;" />
    <path d="M41.353,38.14l0,-2.791l6.765,0" style="fill:none;stroke:#202432;stroke-width:2px;" />
  </g>
</svg>
