<svg width="100%" height="100%" viewBox="0 0 26 26" version="1.1" xmlns="http://www.w3.org/2000/svg" xmlns:xlink="http://www.w3.org/1999/xlink" xml:space="preserve" xmlns:serif="http://www.serif.com/" style="fill-rule:evenodd;clip-rule:evenodd;stroke-linecap:round;stroke-linejoin:round;stroke-miterlimit:10;">
  <g id="contact">
    <path d="M17.696,17.29c-0.814,1.639 -1.891,2.636 -3.861,3.258c-3.444,1.085 -7.618,-2.139 -7.618,-6.516c0,-5.43 4.174,-7.602 7.305,-7.602c2.087,0 4.174,1.086 4.174,2.172" style="fill:none;stroke:#bababd;stroke-width:1px;" />
    <path d="M18.739,6.43c-1.043,3.258 -0.977,7.623 -0.628,11.099c0.628,6.276 4.802,3.019 5.95,0.825c0.747,-1.427 0.939,-3.139 0.939,-4.865c0,-1.727 -0.334,-3.367 -0.939,-4.865c-0.616,-1.488 -1.492,-2.835 -2.578,-3.964c-1.085,-1.13 -2.379,-2.042 -3.808,-2.683c-1.44,-0.629 -3.016,-0.977 -4.675,-0.977c-1.659,0 -3.235,0.348 -4.675,0.977c-1.429,0.641 -2.723,1.553 -3.808,2.683c-1.086,1.129 -1.962,2.476 -2.578,3.964c-0.605,1.498 -0.939,3.138 -0.939,4.865c0,1.726 0.334,3.366 0.939,4.865c0.616,1.488 1.492,2.834 2.578,3.964c1.085,1.129 2.379,2.041 3.808,2.682" style="fill:none;stroke:#bababd;stroke-width:1px;" />
  </g>
</svg>
