<svg width="100%" height="100%" viewBox="0 0 32 31" version="1.1" xmlns="http://www.w3.org/2000/svg" xmlns:xlink="http://www.w3.org/1999/xlink" xml:space="preserve" xmlns:serif="http://www.serif.com/" style="fill-rule:evenodd;clip-rule:evenodd;stroke-linejoin:round;stroke-miterlimit:1.41421;">
  <g id="icons" opacity="0.5">
    <path d="M30.657,28.401c-0.425,0.435 -3.205,1.228 -8.152,1.228c-4.947,0 -7.726,-0.792 -8.15,-1.227l0,-2.496c0.062,-0.057 0.245,-0.187 0.679,-0.346c1.02,0.808 4.308,1.218 7.569,1.218c0.996,0 1.989,-0.038 2.913,-0.114l-0.112,-1.323c-3.929,0.327 -7.516,-0.085 -8.939,-0.533l0,-1.074c0.448,-0.315 2.552,-0.852 6.04,-0.852c3.489,0 5.594,0.537 6.04,0.852l0,1.094c-0.303,0.093 -0.722,0.195 -1.32,0.294l0.222,1.309c1.273,-0.211 2.117,-0.485 2.597,-0.847c0.389,0.149 0.553,0.267 0.613,0.321l0,2.496Zm-0.769,-4.267l0,-0.541c0,-1.891 -5.651,-2.037 -7.383,-2.037c-1.732,0 -7.383,0.146 -7.383,2.037l0,0.541c-1.02,0.291 -2.111,0.775 -2.111,1.682l0,2.669c0,2.352 7.909,2.471 9.494,2.471c1.586,0 9.495,-0.119 9.495,-2.471l0,-2.669c0,-0.907 -1.091,-1.391 -2.112,-1.682m-25.168,0.356c-0.663,0.481 -1.242,0.725 -1.722,0.725c-0.296,0 -0.747,-0.078 -1.249,-0.753c-0.521,-0.701 -0.825,-1.583 0.863,-2.808c1.07,-0.777 14.056,-9.26 14.187,-9.345l0.589,-0.384l-0.667,-0.898c0.04,-0.083 0.131,-0.231 0.287,-0.435l1.918,-1.39l-0.794,-1.07l-1.462,1.059l-0.629,-0.846l-0.477,0.178c-0.292,0.11 -0.474,0.151 -0.581,0.166l-0.729,-0.981c0.208,-0.452 1.278,-1.688 3.37,-3.205c1.981,-1.437 3.524,-2.132 4.108,-2.212l0.726,0.977c-0.045,0.093 -0.14,0.253 -0.335,0.499l-0.314,0.396l0.628,0.846l-1.255,0.911l0.795,1.07l1.718,-1.246c0.242,-0.086 0.404,-0.124 0.5,-0.138l2.792,3.757c-0.04,0.082 -0.132,0.23 -0.288,0.433l-1.846,1.339l0.796,1.07l1.388,-1.008l0.629,0.847l0.477,-0.178c0.292,-0.109 0.475,-0.15 0.582,-0.166l0.729,0.982c-0.208,0.45 -1.278,1.687 -3.371,3.204c-1.982,1.437 -3.524,2.133 -4.108,2.212l-0.726,-0.977c0.046,-0.092 0.14,-0.253 0.335,-0.498l0.315,-0.396l-0.629,-0.846l1.481,-1.075l-0.794,-1.07l-1.944,1.41c-0.243,0.086 -0.405,0.124 -0.501,0.137l-0.827,-1.113l-0.546,0.425c-0.123,0.096 -12.348,9.619 -13.419,10.395m13.829,-8.76c0.185,0.248 0.645,0.526 1.529,0.288l0.147,0.198c-0.281,0.43 -0.545,1.035 -0.178,1.529l0.963,1.296c0.133,0.178 0.394,0.392 0.879,0.392c1.16,0 3.338,-1.279 4.989,-2.477c1.45,-1.051 4.718,-3.633 3.772,-4.907l-0.962,-1.295c-0.185,-0.248 -0.646,-0.527 -1.529,-0.289l-0.147,-0.198c0.28,-0.429 0.545,-1.034 0.177,-1.529l-3.031,-4.078c-0.184,-0.248 -0.643,-0.527 -1.528,-0.289l-0.147,-0.198c0.28,-0.43 0.544,-1.035 0.177,-1.53l-0.962,-1.294c-0.134,-0.179 -0.394,-0.393 -0.88,-0.393c-1.16,0 -3.338,1.279 -4.989,2.478c-1.179,0.855 -2.221,1.757 -2.937,2.541c-0.664,0.73 -1.36,1.658 -0.834,2.366l0.962,1.294c0.183,0.247 0.643,0.526 1.528,0.289l0.147,0.197c-0.267,0.412 -0.52,0.983 -0.222,1.463c-2.591,1.693 -12.68,8.292 -13.656,9c-2.609,1.892 -1.841,3.734 -1.151,4.664c0.639,0.858 1.423,1.294 2.332,1.294c0.783,0 1.605,-0.321 2.517,-0.982c0.97,-0.704 10.48,-8.106 12.91,-9.998l0.124,0.168Z" style="fill:#202432;fill-rule:nonzero;" />
  </g>
</svg>
