<?xml version="1.0" encoding="UTF-8" standalone="no"?><!DOCTYPE svg PUBLIC "-//W3C//DTD SVG 1.1//EN" "http://www.w3.org/Graphics/SVG/1.1/DTD/svg11.dtd"><svg width="100%" height="100%" viewBox="0 0 9 8" version="1.1" xmlns="http://www.w3.org/2000/svg" xmlns:xlink="http://www.w3.org/1999/xlink" xml:space="preserve" xmlns:serif="http://www.serif.com/" style="fill-rule:evenodd;clip-rule:evenodd;stroke-linejoin:round;stroke-miterlimit:1.41421;"><path d="M7.908,3.743l-3.639,-3.637c-0.066,-0.066 -0.157,-0.106 -0.258,-0.106c-0.201,0 -0.364,0.163 -0.364,0.364c0,0.1 0.041,0.191 0.107,0.256l3.018,3.016l-6.408,0c-0.201,0 -0.364,0.163 -0.364,0.364c0,0.201 0.163,0.363 0.364,0.363l6.408,0l-3.018,3.016c-0.066,0.066 -0.107,0.157 -0.107,0.257c0,0.201 0.163,0.364 0.364,0.364c0.101,0 0.192,-0.04 0.258,-0.107l3.639,-3.636c0.067,-0.066 0.107,-0.156 0.107,-0.257c0,-0.101 -0.04,-0.191 -0.107,-0.257" style="fill:#202432;fill-rule:nonzero;"/></svg>