<svg width="100%" height="100%" viewBox="0 0 16 12" version="1.1" xmlns="http://www.w3.org/2000/svg" xmlns:xlink="http://www.w3.org/1999/xlink" xml:space="preserve" xmlns:serif="http://www.serif.com/" style="fill-rule:evenodd;clip-rule:evenodd;stroke-linejoin:round;stroke-miterlimit:1.41421;">
  <g id="Слой-1" serif:id="Слой 1">
    <path d="M15.508,0.529c-0.318,-0.341 -0.741,-0.529 -1.191,-0.529c-0.45,0 -0.872,0.188 -1.191,0.529l-6.624,7.109l-3.628,-3.892c-0.318,-0.341 -0.741,-0.53 -1.19,-0.53c-0.45,0 -0.873,0.189 -1.191,0.53c-0.318,0.341 -0.493,0.794 -0.493,1.277c0,0.483 0.175,0.936 0.493,1.278l4.817,5.169c0.319,0.342 0.742,0.53 1.192,0.53c0.449,0 0.872,-0.188 1.19,-0.53l7.816,-8.386c0.656,-0.705 0.656,-1.851 0,-2.555" style="fill:#fff;fill-rule:nonzero;" />
  </g>
</svg>
