<svg width="100%" height="100%" viewBox="0 0 16 16" version="1.1" xmlns="http://www.w3.org/2000/svg" xmlns:xlink="http://www.w3.org/1999/xlink" xml:space="preserve" xmlns:serif="http://www.serif.com/" style="fill-rule:evenodd;clip-rule:evenodd;stroke-linejoin:round;stroke-miterlimit:1.41421;">
  <g id="Layer-1" serif:id="Layer 1">
    <path d="M15.206,15.217l-14.412,0l0,-13.093l2.701,0l0,0.831c0,0.217 0.178,0.392 0.397,0.392c0.219,0 0.397,-0.175 0.397,-0.392l0,-0.831l1.945,0l0,0.831c0,0.217 0.177,0.392 0.397,0.392c0.219,0 0.396,-0.175 0.396,-0.392l0,-0.831l1.946,0l0,0.831c0,0.217 0.177,0.392 0.396,0.392c0.219,0 0.397,-0.175 0.397,-0.392l0,-0.831l1.945,0l0,0.831c0,0.217 0.178,0.392 0.397,0.392c0.219,0 0.397,-0.175 0.397,-0.392l0,-0.831l2.701,0l0,13.093Zm-1.329,-13.876l-0.909,0l-0.463,0l0,-0.949c0,-0.217 -0.178,-0.392 -0.397,-0.392c-0.219,0 -0.397,0.175 -0.397,0.392l0,0.949l-1.945,0l0,-0.949c0,-0.217 -0.178,-0.392 -0.397,-0.392c-0.219,0 -0.396,0.175 -0.396,0.392l0,0.949l-1.946,0l0,-0.949c0,-0.217 -0.177,-0.392 -0.396,-0.392c-0.22,0 -0.397,0.175 -0.397,0.392l0,0.949l-1.945,0l0,-0.949c0,-0.217 -0.178,-0.392 -0.397,-0.392c-0.219,0 -0.397,0.175 -0.397,0.392l0,0.949l-3.495,0l0,14.659l16,0l0,-14.659l-2.123,0Z" style="fill:#202432;fill-rule:nonzero;" />
    <path d="M12.416,6.277l-4.311,6.466l-0.063,0.006l-4.396,-4.395l0.708,-0.708l3.568,3.569l3.662,-5.492l0.832,0.554Z" style="fill:#202432;" />
  </g>
</svg>
