<svg width="100%" height="100%" viewBox="0 0 24 16" version="1.1" xmlns="http://www.w3.org/2000/svg" xmlns:xlink="http://www.w3.org/1999/xlink" xml:space="preserve" xmlns:serif="http://www.serif.com/" style="fill-rule:evenodd;clip-rule:evenodd;stroke-linejoin:round;stroke-miterlimit:1.41421;">
  <path d="M0,7.998c0,0 5.373,8.002 12.002,8.002c6.625,0 11.998,-8.002 11.998,-8.002c0,0 -5.373,-7.998 -11.998,-7.998c-6.629,0 -12.002,7.998 -12.002,7.998m21.016,0c-5.887,7.291 -12.056,7.402 -18.027,0c1.958,-2.426 4.039,-4.008 6.103,-4.803c-0.976,0.884 -1.59,2.169 -1.59,3.603c0,2.653 2.1,4.799 4.686,4.799c2.589,0 4.688,-2.146 4.688,-4.799c0,-1.4 -0.586,-2.669 -1.523,-3.545c1.885,0.805 3.743,2.369 5.663,4.745m-10.738,-1.2c0,-1.079 0.855,-1.953 1.91,-1.953c1.053,0 1.912,0.874 1.912,1.953c0,1.079 -0.859,1.956 -1.912,1.956c-1.055,0 -1.91,-0.877 -1.91,-1.956" style="fill:#ffd24c;" />
</svg>
