<svg width="100%" height="100%" viewBox="0 0 48 40" version="1.1" xmlns="http://www.w3.org/2000/svg" xmlns:xlink="http://www.w3.org/1999/xlink" xml:space="preserve" xmlns:serif="http://www.serif.com/" style="fill-rule:evenodd;clip-rule:evenodd;stroke-miterlimit:10;">
  <g id="icons" opacity="0.5">
    <path d="M23.31,14.813c1.593,0 2.783,-1.315 2.783,-2.938l0,-0.981c0,-1.622 -1.19,-2.938 -2.783,-2.938c-1.594,0 -2.784,1.316 -2.784,2.938l0,0.981c0,1.623 1.19,2.938 2.784,2.938Z" style="fill:none;stroke:#202432;stroke-width:1.5px;" />
    <path d="M28.877,19.613l0,-2.086c0,-1.89 -3.486,-2.742 -5.219,-2.742c-1.734,0 -5.22,0.852 -5.22,2.742l0,2.086" style="fill:none;stroke:#202432;stroke-width:1.5px;" />
    <path d="M24.006,27.156c1.593,0 2.783,-1.315 2.783,-2.938l0,-0.981c0,-1.622 -1.19,-2.938 -2.783,-2.938c-1.594,0 -2.784,1.316 -2.784,2.938l0,0.981c0,1.623 1.19,2.938 2.784,2.938Z" style="fill:none;stroke:#202432;stroke-width:1.5px;" />
    <path d="M29.573,31.956l0,-2.086c0,-1.89 -3.487,-2.743 -5.219,-2.743c-1.734,0 -5.22,0.853 -5.22,2.743l0,2.086" style="fill:none;stroke:#202432;stroke-width:1.5px;" />
    <path d="M34.444,20.985c1.594,0 2.784,-1.315 2.784,-2.939l0,-0.98c0,-1.622 -1.19,-2.938 -2.784,-2.938c-1.593,0 -2.783,1.316 -2.783,2.938l0,0.98c0,1.624 1.19,2.939 2.783,2.939Z" style="fill:none;stroke:#202432;stroke-width:1.5px;" />
    <path d="M40.011,25.785l0,-2.086c0,-1.891 -3.486,-2.743 -5.219,-2.743c-1.733,0 -5.219,0.852 -5.219,2.743l0,2.086" style="fill:none;stroke:#202432;stroke-width:1.5px;" />
    <path d="M12.871,20.985c1.594,0 2.784,-1.315 2.784,-2.939l0,-0.98c0,-1.622 -1.19,-2.938 -2.784,-2.938c-1.593,0 -2.783,1.316 -2.783,2.938l0,0.98c0,1.624 1.19,2.939 2.783,2.939Z" style="fill:none;stroke:#202432;stroke-width:1.5px;" />
    <path d="M18.438,25.785l0,-2.086c0,-1.891 -3.486,-2.743 -5.219,-2.743c-1.733,0 -5.219,0.852 -5.219,2.743l0,2.086" style="fill:none;stroke:#202432;stroke-width:1.5px;" />
  </g>
</svg>
