<svg width="100%" height="100%" viewBox="0 0 48 34" version="1.1" xmlns="http://www.w3.org/2000/svg" xmlns:xlink="http://www.w3.org/1999/xlink" xml:space="preserve" xmlns:serif="http://www.serif.com/" style="fill-rule:evenodd;clip-rule:evenodd;stroke-miterlimit:10;">
  <g id="icons">
    <path d="M17.739,13.76c-1.101,1.23 -2.782,4.32 -2.782,4.32l5.565,5.76l1.391,0c0,0 6.261,-5.76 9.044,-5.76l6.26,0l0,-1.44c0,-1.193 -0.304,-1.845 -2.043,-2.362c-1.74,-0.518 -8.478,-1.958 -11.87,-1.958c-3.391,0 -4.501,0.251 -5.565,1.44Z" style="fill:none;stroke:#fff;stroke-width:1.5px;" />
    <path d="M40,11.6l0,14.4l-1.391,0l-1.392,-3.6l-13.217,0" style="fill:none;stroke:#fff;stroke-width:1.5px;" />
    <path d="M8,8l0,10.08l6.957,0" style="fill:none;stroke:#fff;stroke-width:1.5px;" />
    <path d="M19.13,22.4l-8.347,0l-1.392,3.6l-1.391,0l0,-7.92" style="fill:none;stroke:#fff;stroke-width:1.5px;" />
    <path d="M37.217,18.08l2.783,0" style="fill:none;stroke:#fff;stroke-width:1.5px;" />
    <path d="M16.914,14.84c-0.385,-1.041 -1.582,-1.8 -3.001,-1.8c-1.729,0 -3.13,0.72 -3.13,2.52l0,1.08c0,0.675 0.696,1.44 1.391,1.44" style="fill:none;stroke:#fff;stroke-width:1.5px;" />
  </g>
</svg>
