<svg width="100%" height="100%" viewBox="0 0 46 49" version="1.1" xmlns="http://www.w3.org/2000/svg" xmlns:xlink="http://www.w3.org/1999/xlink" xml:space="preserve" xmlns:serif="http://www.serif.com/" style="fill-rule:evenodd;clip-rule:evenodd;stroke-linejoin:round;stroke-miterlimit:10;">
  <g id="icons" opacity="0.5">
    <rect x="17" y="20" width="14" height="28" style="fill:none;stroke:#202432;stroke-width:2px;" />
    <rect x="19" y="15" width="10" height="5" style="fill:none;stroke:#202432;stroke-width:2px;" />
    <rect x="22" y="10" width="4" height="5" style="fill:none;stroke:#202432;stroke-width:2px;" />
    <path d="M21,28l6,0" style="fill:none;stroke:#202432;stroke-width:2px;" />
    <path d="M21,24l6,0" style="fill:none;stroke:#202432;stroke-width:2px;" />
    <path d="M21,32l6,0" style="fill:none;stroke:#202432;stroke-width:2px;" />
    <path d="M21,36l6,0" style="fill:none;stroke:#202432;stroke-width:2px;" />
    <path d="M21,40l6,0" style="fill:none;stroke:#202432;stroke-width:2px;" />
    <path d="M21,44l6,0" style="fill:none;stroke:#202432;stroke-width:2px;" />
    <path d="M12,36l2,0" style="fill:none;stroke:#202432;stroke-width:2px;" />
    <path d="M12,32l2,0" style="fill:none;stroke:#202432;stroke-width:2px;" />
    <path d="M12,28l2,0" style="fill:none;stroke:#202432;stroke-width:2px;" />
    <path d="M12,40l2,0" style="fill:none;stroke:#202432;stroke-width:2px;" />
    <path d="M12,44l2,0" style="fill:none;stroke:#202432;stroke-width:2px;" />
    <path d="M40,32l0,-5l-9,0" style="fill:none;stroke:#202432;stroke-width:2px;" />
    <path d="M24,10l0,-9" style="fill:none;stroke:#202432;stroke-width:2px;" />
    <path d="M31,23l6,0l0,4" style="fill:none;stroke:#202432;stroke-width:2px;" />
    <path d="M19,13l0,-6l-1,-1l-9,10l0,32l8,0" style="fill:none;stroke:#202432;stroke-width:2px;" />
    <path d="M9,32l-8,0l0,16l8,0" style="fill:none;stroke:#202432;stroke-width:2px;" />
    <path d="M3,32l0,-6l6,-5" style="fill:none;stroke:#202432;stroke-width:2px;" />
    <path d="M42,36l-6,0" style="fill:none;stroke:#202432;stroke-width:2px;" />
    <path d="M42,40l-6,0" style="fill:none;stroke:#202432;stroke-width:2px;" />
    <path d="M42,44l-6,0" style="fill:none;stroke:#202432;stroke-width:2px;" />
    <rect x="36" y="32" width="9" height="16" style="fill:none;stroke:#202432;stroke-width:2px;" />
    <path d="M31,48l5,0" style="fill:none;stroke:#202432;stroke-width:2px;" />
    <path d="M5,35l0,10" style="fill:none;stroke:#202432;stroke-width:2px;" />
    <path d="M42,27l-2,0" style="fill:none;stroke:#202432;stroke-width:2px;" />
  </g>
</svg>
