<svg width="100%" height="100%" viewBox="0 0 60 52" version="1.1" xmlns="http://www.w3.org/2000/svg" xmlns:xlink="http://www.w3.org/1999/xlink" xml:space="preserve" xmlns:serif="http://www.serif.com/" style="fill-rule:evenodd;clip-rule:evenodd;stroke-miterlimit:10;">
  <g id="icons" opacity="0.5">
    <path d="M49,33.447l-11.993,-11.868l-11.992,11.868" style="fill:none;stroke:#202432;stroke-width:2px;" />
    <path d="M28.285,30.21l0,9.711" style="fill:none;stroke:#202432;stroke-width:2px;" />
    <path d="M45.729,30.21l0,10.79" style="fill:none;stroke:#202432;stroke-width:2px;" />
    <path d="M42.459,26.974l0,-6.474" style="fill:none;stroke:#202432;stroke-width:2px;" />
    <path d="M33.136,11.578c0.346,0.353 0.536,0.752 0.554,1.194c0.105,2.769 -6.646,6.192 -14.97,7.747c-8.213,1.533 -15.447,0.775 -16.293,-1.783c-0.134,-0.406 -0.102,-0.834 0.081,-1.275" style="fill:none;stroke:#202432;stroke-width:2px;stroke-linecap:round;stroke-linejoin:round;" />
    <path d="M13.972,27.213c-1.074,0.096 -2.123,0.149 -3.131,0.161c-5.289,0.063 -9.404,-0.989 -9.783,-2.694c-0.071,-0.319 -0.009,-0.644 0.176,-0.967" style="fill:none;stroke:#202432;stroke-width:2px;stroke-linecap:round;stroke-linejoin:round;" />
    <path d="M26.265,21.794c0.08,0.174 0.121,0.355 0.118,0.542c-0.025,1.491 -2.805,2.999 -6.819,3.974" style="fill:none;stroke:#202432;stroke-width:2px;stroke-linecap:round;stroke-linejoin:round;" />
    <path d="M4.299,32.127c-1.789,-0.563 -2.931,-1.344 -3.013,-2.223" style="fill:none;stroke:#202432;stroke-width:2px;stroke-linecap:round;stroke-linejoin:round;" />
    <path d="M21.26,28.966c0.186,0.263 0.273,0.538 0.25,0.82c-0.149,1.787 -4.673,3.22 -10.103,3.25c-0.949,0.005 -1.871,-0.032 -2.747,-0.108" style="fill:none;stroke:#202432;stroke-width:2px;stroke-linecap:round;stroke-linejoin:round;" />
    <path d="M15.027,36.444c0.111,0.149 0.168,0.307 0.165,0.469c-0.014,1.034 -2.492,1.889 -5.533,1.917c-3.04,0.028 -5.543,-0.779 -5.591,-1.814c-0.008,-0.16 0.044,-0.317 0.15,-0.467" style="fill:none;stroke:#202432;stroke-width:2px;stroke-linecap:round;stroke-linejoin:round;" />
    <path d="M14.112,13.612c-6.018,0.432 -10.509,-0.52 -11.022,-2.638c-0.703,-2.887 6.245,-6.846 15.518,-8.844c9.273,-1.998 17.359,-1.277 18.06,1.611c0.601,2.468 -4.393,5.721 -11.653,7.861" style="fill:none;stroke:#202432;stroke-width:2px;stroke-linecap:round;stroke-linejoin:round;" />
  </g>
</svg>
