<svg width="100%" height="100%" viewBox="0 0 16 14" version="1.1" xmlns="http://www.w3.org/2000/svg" xmlns:xlink="http://www.w3.org/1999/xlink" xml:space="preserve" xmlns:serif="http://www.serif.com/" style="fill-rule:evenodd;clip-rule:evenodd;stroke-linejoin:round;stroke-miterlimit:1.41421;">
  <path d="M10.66,6.68c-0.51,0 -0.923,-0.427 -0.923,-0.955c0,-0.527 0.413,-0.955 0.923,-0.955c0.51,0 0.923,0.428 0.923,0.955c0,0.528 -0.413,0.955 -0.923,0.955m-2.667,0c-0.509,0 -0.923,-0.427 -0.923,-0.955c0,-0.527 0.414,-0.955 0.923,-0.955c0.51,0 0.924,0.428 0.924,0.955c0,0.528 -0.414,0.955 -0.924,0.955m-2.666,0c-0.51,0 -0.923,-0.427 -0.923,-0.955c0,-0.527 0.413,-0.955 0.923,-0.955c0.51,0 0.923,0.428 0.923,0.955c0,0.528 -0.413,0.955 -0.923,0.955m5.135,-6.68l-4.924,0c-3.058,0 -5.538,2.565 -5.538,5.729c0,3.164 2.48,5.725 5.538,5.725l4.302,0l0,2.227c0,0.284 0.331,0.426 0.525,0.225c4.365,-4.511 4.293,-4.345 4.707,-4.994c0.574,-0.904 0.928,-2.008 0.928,-3.183c0,-3.164 -2.48,-5.729 -5.538,-5.729" style="fill:#ffd24c;fill-rule:nonzero;" />
</svg>
