<svg width="100%" height="100%" viewBox="0 0 42 41" version="1.1" xmlns="http://www.w3.org/2000/svg" xmlns:xlink="http://www.w3.org/1999/xlink" xml:space="preserve" xmlns:serif="http://www.serif.com/" style="fill-rule:evenodd;clip-rule:evenodd;stroke-miterlimit:10;">
  <g id="icons">
    <path d="M24.545,33l0,-19.452" style="fill:none;stroke:#fff;stroke-width:1.5px;" />
    <path d="M21.636,19.312l2.909,2.882" style="fill:none;stroke:#fff;stroke-width:1.5px;" />
    <path d="M26.727,16.43l-2.182,2.161" style="fill:none;stroke:#fff;stroke-width:1.5px;" />
    <path d="M5.636,30.118l0,2.882" style="fill:none;stroke:#fff;stroke-width:1.5px;stroke-linejoin:round;" />
    <path d="M6.364,22.914l0,7.204" style="fill:none;stroke:#fff;stroke-width:1.5px;stroke-linejoin:round;" />
    <path d="M19.455,30.118l0,2.882" style="fill:none;stroke:#fff;stroke-width:1.5px;stroke-linejoin:round;" />
    <path d="M18.727,22.914l0,7.204" style="fill:none;stroke:#fff;stroke-width:1.5px;stroke-linejoin:round;" />
    <rect x="6.364" y="24.355" width="12.364" height="2.882" style="fill:none;stroke:#fff;stroke-width:1.5px;stroke-linejoin:round;" />
    <path d="M4.182,30.118l16.727,0" style="fill:none;stroke:#fff;stroke-width:1.5px;stroke-linejoin:round;" />
    <path d="M20.909,25.075l7.647,0c3.007,0 5.444,-2.497 5.444,-5.577c0,-2.587 -1.724,-4.757 -4.057,-5.386c-0.333,-2.754 -2.62,-4.886 -5.398,-4.886c-2.777,0 -5.064,2.132 -5.397,4.886c-2.333,0.629 -4.057,2.799 -4.057,5.386c0,0.894 0.205,1.738 0.569,2.486" style="fill:none;stroke:#fff;stroke-width:1.5px;" />
    <path d="M17.304,11.41c-0.613,-0.466 -1.38,-0.743 -2.213,-0.743c-1.762,0 -3.23,1.241 -3.564,2.889c-0.025,-0.001 -0.047,-0.007 -0.072,-0.007c-2.009,0 -3.636,1.612 -3.636,3.602c0,1.989 1.627,3.602 3.636,3.602l1.454,0" style="fill:none;stroke:#fff;stroke-width:1.5px;" />
    <path d="M26.727,4.903l-5.019,0c-0.372,-0.72 -1.247,-1.463 -2.268,-1.463c-0.324,0 -0.633,0.076 -0.916,0.189c-0.568,-1.502 -2.027,-2.629 -3.741,-2.629c-2.207,0 -3.995,2.462 -4,3.903l-5.874,0" style="fill:none;stroke:#fff;stroke-width:1.5px;stroke-linejoin:round;" />
    <path d="M7.091,9.226l-5.091,0" style="fill:none;stroke:#fff;stroke-width:1.5px;stroke-linejoin:round;" />
    <path d="M8.545,9.226l1.455,0" style="fill:none;stroke:#fff;stroke-width:1.5px;stroke-linejoin:round;" />
    <path d="M28.182,4.903l1.454,0" style="fill:none;stroke:#fff;stroke-width:1.5px;stroke-linejoin:round;" />
    <path d="M31.091,4.903l1.454,0" style="fill:none;stroke:#fff;stroke-width:1.5px;stroke-linejoin:round;" />
  </g>
</svg>
