<svg width="100%" height="100%" viewBox="0 0 16 16" version="1.1" xmlns="http://www.w3.org/2000/svg" xmlns:xlink="http://www.w3.org/1999/xlink" xml:space="preserve" xmlns:serif="http://www.serif.com/" style="fill-rule:evenodd;clip-rule:evenodd;stroke-linejoin:round;stroke-miterlimit:1.41421;">
  <g id="Layer-1" serif:id="Layer 1">
    <path d="M15.206,15.217l-14.412,0l0,-13.093l2.701,0l0,0.831c0,0.217 0.178,0.392 0.397,0.392c0.219,0 0.397,-0.175 0.397,-0.392l0,-0.831l1.945,0l0,0.831c0,0.217 0.177,0.392 0.397,0.392c0.219,0 0.396,-0.175 0.396,-0.392l0,-0.831l1.946,0l0,0.831c0,0.217 0.177,0.392 0.396,0.392c0.219,0 0.397,-0.175 0.397,-0.392l0,-0.831l1.945,0l0,0.831c0,0.217 0.178,0.392 0.397,0.392c0.219,0 0.397,-0.175 0.397,-0.392l0,-0.831l2.701,0l0,13.093Zm-1.329,-13.876l-0.909,0l-0.463,0l0,-0.949c0,-0.217 -0.178,-0.392 -0.397,-0.392c-0.219,0 -0.397,0.175 -0.397,0.392l0,0.949l-1.945,0l0,-0.949c0,-0.217 -0.178,-0.392 -0.397,-0.392c-0.219,0 -0.396,0.175 -0.396,0.392l0,0.949l-1.946,0l0,-0.949c0,-0.217 -0.177,-0.392 -0.396,-0.392c-0.22,0 -0.397,0.175 -0.397,0.392l0,0.949l-1.945,0l0,-0.949c0,-0.217 -0.178,-0.392 -0.397,-0.392c-0.219,0 -0.397,0.175 -0.397,0.392l0,0.949l-3.495,0l0,14.659l16,0l0,-14.659l-2.123,0Z" style="fill:#053391;fill-rule:nonzero;" />
    <rect x="3.401" y="8.634" width="0.995" height="0.983" style="fill:#053391;" />
    <rect x="3.409" y="11.303" width="0.996" height="0.982" style="fill:#053391;" />
    <rect x="6.139" y="11.303" width="0.995" height="0.982" style="fill:#053391;" />
    <rect x="8.87" y="11.303" width="0.995" height="0.982" style="fill:#053391;" />
    <rect x="6.108" y="8.632" width="0.995" height="0.982" style="fill:#053391;" />
    <rect x="8.838" y="8.632" width="0.995" height="0.982" style="fill:#053391;" />
    <rect x="11.569" y="8.632" width="0.995" height="0.982" style="fill:#053391;" />
    <rect x="6.084" y="5.961" width="0.995" height="0.982" style="fill:#053391;" />
    <rect x="8.815" y="5.961" width="0.995" height="0.982" style="fill:#053391;" />
    <rect x="11.545" y="5.961" width="0.995" height="0.982" style="fill:#053391;" />
  </g>
</svg>
