<svg width="100%" height="100%" viewBox="0 0 68 55" version="1.1" xmlns="http://www.w3.org/2000/svg" xmlns:xlink="http://www.w3.org/1999/xlink" xml:space="preserve" xmlns:serif="http://www.serif.com/" style="fill-rule:evenodd;clip-rule:evenodd;stroke-linejoin:round;stroke-miterlimit:10;">
  <g id="icons" opacity="0.5">
    <path d="M48.683,53.378c5.865,-2.542 12.964,-7.963 3.57,-11.182c-9.972,-3.418 -19.858,-6.989 -11.57,-11.818" style="fill:none;stroke:#202432;stroke-width:2px;" />
    <path d="M30,53.262c7.169,-2.529 16.924,-6.284 10.779,-10.346c-4.586,-3.031 -6.902,-5.525 -7.022,-7.911" style="fill:none;stroke:#202432;stroke-width:2px;" />
    <path d="M50,23.378c0,2.738 -2.238,5 -5,5c-2.762,0 -5,-2.262 -5,-5c0,-2.738 5,-12 5,-12c0,0 5,9.262 5,12Z" style="fill:none;stroke:#202432;stroke-width:2px;stroke-linejoin:miter;" />
    <path d="M45,28.378l0,7" style="fill:none;stroke:#202432;stroke-width:2px;stroke-linejoin:miter;" />
    <path d="M51.476,19.452c0.818,-1.728 1.524,-3.074 1.524,-3.074c0,0 4,7.627 4,9.883c0,2.255 -1.791,4.117 -4,4.117c-1.073,0 -2.047,-0.44 -2.766,-1.151" style="fill:none;stroke:#202432;stroke-width:2px;stroke-linejoin:miter;" />
    <path d="M53,30.378l0,5" style="fill:none;stroke:#202432;stroke-width:2px;stroke-linejoin:miter;" />
    <path d="M28,31.378l0,16l-14,0l0,-16" style="fill:none;stroke:#202432;stroke-width:2px;" />
    <path d="M30,33.378l-9,-9l-9,9" style="fill:none;stroke:#202432;stroke-width:2px;" />
    <path d="M19,47.378l0,-6l4,0l0,6" style="fill:none;stroke:#202432;stroke-width:2px;" />
    <path d="M16,24.378l0,5" style="fill:none;stroke:#202432;stroke-width:2px;" />
    <path d="M35,20.378l-9,0c-0.386,-2.016 -2,-2.719 -3.821,-2.29c-0.75,-1.292 -2.133,-2.088 -3.734,-2.088c-2.381,0 -4.424,1.378 -4.445,4.378l-3,0" style="fill:none;stroke:#202432;stroke-width:2px;stroke-linejoin:miter;" />
    <path d="M39,15.378l-2.974,0c-0.579,-2.047 -2.191,-2.612 -3.847,-2.29c-0.75,-1.292 -2.133,-2.088 -3.734,-2.088c-2.381,0 -4.424,1.378 -4.445,4.378" style="fill:none;stroke:#202432;stroke-width:2px;stroke-linejoin:miter;" />
    <path d="M17,33.378l3,0" style="fill:none;stroke:#202432;stroke-width:2px;" />
    <path d="M22,33.378l3,0" style="fill:none;stroke:#202432;stroke-width:2px;" />
    <path d="M17,37.378l3,0" style="fill:none;stroke:#202432;stroke-width:2px;" />
    <path d="M22,37.378l3,0" style="fill:none;stroke:#202432;stroke-width:2px;" />
    <path d="M11,47.378l3,0" style="fill:none;stroke:#202432;stroke-width:2px;" />
    <path d="M28,47.378l3,0" style="fill:none;stroke:#202432;stroke-width:2px;" />
  </g>
</svg>
