<svg width="100%" height="100%" viewBox="0 0 16 16" version="1.1" xmlns="http://www.w3.org/2000/svg" xmlns:xlink="http://www.w3.org/1999/xlink" xml:space="preserve" xmlns:serif="http://www.serif.com/" style="fill-rule:evenodd;clip-rule:evenodd;stroke-linejoin:round;stroke-miterlimit:1.41421;">
  <path d="M6.907,2.066c0.137,0 0.276,0.007 0.414,0.017c2.568,0.208 4.47,2.305 4.246,4.68c-0.209,2.214 -2.252,3.945 -4.65,3.945c-0.137,0 -0.274,-0.005 -0.411,-0.014c-2.564,-0.209 -4.467,-2.309 -4.242,-4.683c0.207,-2.213 2.246,-3.945 4.643,-3.945m6.752,13.934c0.544,0 1.08,-0.182 1.503,-0.508c0.482,-0.371 0.774,-0.893 0.829,-1.471c0.055,-0.577 -0.138,-1.14 -0.547,-1.586l-2.609,-2.763c0.542,-0.838 0.863,-1.751 0.958,-2.721c0.158,-1.7 -0.407,-3.358 -1.593,-4.669c-1.188,-1.307 -2.857,-2.11 -4.69,-2.257c-0.204,-0.016 -0.405,-0.025 -0.603,-0.025c-3.55,0 -6.571,2.564 -6.88,5.837c-0.16,1.698 0.405,3.356 1.591,4.666c1.19,1.308 2.854,2.113 4.69,2.259c0.197,0.018 0.394,0.026 0.589,0.026c0.783,0 1.557,-0.127 2.307,-0.371l2.659,2.806c0.404,0.444 0.97,0.719 1.587,0.769c0.07,0.005 0.138,0.008 0.209,0.008" style="fill:#fff;fill-rule:nonzero;" />
</svg>
