<svg version="1.1" xmlns="http://www.w3.org/2000/svg" xmlns:xlink="http://www.w3.org/1999/xlink">
  <symbol id="eye" viewBox="0 0 24 16">
    <path d="M0,7.998c0,0 5.373,8.002 12.002,8.002c6.625,0 11.998,-8.002 11.998,-8.002c0,0 -5.373,-7.998 -11.998,-7.998c-6.629,0 -12.002,7.998 -12.002,7.998m21.016,0c-5.887,7.291 -12.056,7.402 -18.027,0c1.958,-2.426 4.039,-4.008 6.103,-4.803c-0.976,0.884 -1.59,2.169 -1.59,3.603c0,2.653 2.1,4.799 4.686,4.799c2.589,0 4.688,-2.146 4.688,-4.799c0,-1.4 -0.586,-2.669 -1.523,-3.545c1.885,0.805 3.743,2.369 5.663,4.745m-10.738,-1.2c0,-1.079 0.855,-1.953 1.91,-1.953c1.053,0 1.912,0.874 1.912,1.953c0,1.079 -0.859,1.956 -1.912,1.956c-1.055,0 -1.91,-0.877 -1.91,-1.956" />
  </symbol>

  <symbol id="instagram" viewBox="0 0 16 16">
    <path d="M8,13.995c-2.046,0 -2.288,-0.008 -3.093,-0.045c-0.705,-0.032 -1.081,-0.147 -1.33,-0.244c-0.32,-0.124 -0.538,-0.266 -0.778,-0.505c-0.239,-0.24 -0.381,-0.458 -0.505,-0.778c-0.097,-0.249 -0.212,-0.625 -0.244,-1.33c-0.037,-0.806 -0.045,-1.048 -0.045,-3.093c0,-2.046 0.008,-2.287 0.045,-3.093c0.032,-0.705 0.147,-1.081 0.244,-1.33c0.124,-0.32 0.266,-0.538 0.505,-0.778c0.24,-0.239 0.458,-0.381 0.778,-0.505c0.249,-0.097 0.625,-0.212 1.33,-0.244c0.803,-0.037 1.045,-0.045 3.093,-0.045c2.048,0 2.29,0.008 3.093,0.045c0.705,0.032 1.081,0.147 1.33,0.244c0.32,0.124 0.538,0.266 0.778,0.505c0.239,0.24 0.381,0.458 0.505,0.778c0.097,0.249 0.212,0.625 0.244,1.329c0.037,0.806 0.045,1.048 0.045,3.094c0,2.046 -0.008,2.288 -0.045,3.093c-0.032,0.705 -0.147,1.081 -0.244,1.33c-0.124,0.32 -0.266,0.538 -0.505,0.778c-0.24,0.239 -0.458,0.381 -0.778,0.505c-0.249,0.097 -0.625,0.212 -1.33,0.244c-0.805,0.037 -1.047,0.045 -3.093,0.045m7.953,-9.18c-0.035,-0.777 -0.152,-1.383 -0.378,-1.965c-0.225,-0.579 -0.52,-1.032 -0.957,-1.468c-0.436,-0.437 -0.889,-0.732 -1.468,-0.957c-0.582,-0.226 -1.188,-0.343 -1.965,-0.378c-0.827,-0.038 -1.101,-0.047 -3.185,-0.047c-2.084,0 -2.358,0.009 -3.185,0.047c-0.777,0.035 -1.383,0.152 -1.965,0.378c-0.579,0.225 -1.032,0.52 -1.468,0.956c-0.437,0.437 -0.732,0.89 -0.957,1.469c-0.226,0.582 -0.343,1.188 -0.378,1.965c-0.038,0.827 -0.047,1.101 -0.047,3.185c0,2.084 0.009,2.358 0.047,3.185c0.035,0.777 0.152,1.383 0.378,1.965c0.225,0.579 0.52,1.032 0.957,1.468c0.436,0.437 0.889,0.732 1.468,0.957c0.582,0.226 1.188,0.343 1.965,0.378c0.827,0.038 1.101,0.047 3.185,0.047c2.084,0 2.358,-0.009 3.185,-0.047c0.777,-0.035 1.383,-0.152 1.965,-0.378c0.579,-0.225 1.032,-0.52 1.468,-0.957c0.437,-0.436 0.732,-0.889 0.957,-1.468c0.226,-0.582 0.343,-1.188 0.378,-1.965c0.038,-0.827 0.047,-1.101 0.047,-3.185c0,-2.084 -0.009,-2.358 -0.047,-3.185" style="fill-rule:nonzero;" />
    <path d="M8,10.254c-1.243,0 -2.254,-1.011 -2.254,-2.254c0,-1.243 1.011,-2.254 2.254,-2.254c1.243,0 2.254,1.011 2.254,2.254c0,1.243 -1.011,2.254 -2.254,2.254m0,-6.513c-2.348,0 -4.259,1.911 -4.259,4.259c0,2.348 1.911,4.259 4.259,4.259c2.348,0 4.259,-1.911 4.259,-4.259c0,-2.348 -1.911,-4.259 -4.259,-4.259" style="fill-rule:nonzero;" />
    <path d="M12.105,5.127c0.68,0 1.233,-0.552 1.233,-1.232c0,-0.68 -0.553,-1.233 -1.233,-1.233c-0.68,0 -1.233,0.553 -1.233,1.233c0,0.68 0.553,1.232 1.233,1.232" style="fill-rule:nonzero;" />
  </symbol>

  <symbol id="twiter" viewBox="0 0 16 13">
    <path d="M16,1.539c-0.589,0.261 -1.221,0.437 -1.885,0.517c0.677,-0.407 1.198,-1.05 1.443,-1.816c-0.634,0.376 -1.337,0.649 -2.084,0.796c-0.599,-0.638 -1.452,-1.036 -2.397,-1.036c-1.812,0 -3.282,1.469 -3.282,3.282c0,0.257 0.029,0.508 0.085,0.748c-2.728,-0.137 -5.147,-1.444 -6.766,-3.429c-0.283,0.484 -0.445,1.048 -0.445,1.65c0,1.138 0.58,2.143 1.461,2.731c-0.538,-0.017 -1.044,-0.164 -1.487,-0.41c0,0.013 0,0.027 0,0.041c0,1.59 1.131,2.917 2.633,3.218c-0.276,0.075 -0.566,0.115 -0.865,0.115c-0.211,0 -0.417,-0.02 -0.618,-0.059c0.418,1.304 1.63,2.253 3.067,2.279c-1.124,0.881 -2.539,1.405 -4.077,1.405c-0.265,0 -0.526,-0.015 -0.783,-0.046c1.453,0.932 3.178,1.475 5.032,1.475c6.038,0 9.34,-5.001 9.34,-9.338c0,-0.142 -0.004,-0.283 -0.01,-0.424c0.641,-0.463 1.198,-1.041 1.638,-1.699" style="fill-rule:nonzero;" />
  </symbol>

  <symbol id="odnoklassniki" viewBox="0 0 10 16">
    <path d="M5.491,2.42c0.917,0 1.664,0.767 1.664,1.71c0,0.942 -0.747,1.709 -1.664,1.709c-0.917,0 -1.664,-0.767 -1.664,-1.709c0,-0.943 0.747,-1.71 1.664,-1.71m0,5.838c2.216,0 4.018,-1.852 4.018,-4.128c0,-2.278 -1.802,-4.13 -4.018,-4.13c-2.216,0 -4.018,1.852 -4.018,4.13c0,2.276 1.802,4.128 4.018,4.128" style="fill-rule:nonzero;" />
    <path d="M7.117,11.626c0.818,-0.191 1.606,-0.524 2.333,-0.993c0.55,-0.356 0.715,-1.103 0.369,-1.668c-0.346,-0.566 -1.073,-0.736 -1.623,-0.38c-1.646,1.063 -3.765,1.063 -5.41,0c-0.551,-0.356 -1.277,-0.186 -1.623,0.38c-0.346,0.566 -0.181,1.312 0.369,1.668c0.726,0.469 1.515,0.802 2.333,0.993l-2.246,2.309c-0.46,0.472 -0.46,1.238 0,1.711c0.23,0.236 0.531,0.354 0.832,0.354c0.301,0 0.603,-0.118 0.833,-0.354l2.206,-2.269l2.209,2.269c0.459,0.472 1.204,0.472 1.664,0c0.46,-0.473 0.46,-1.239 0,-1.711l-2.246,-2.309Z" style="fill-rule:nonzero;" />
  </symbol>

  <symbol id="youtube" viewBox="0 0 16 12">
    <path d="M6.322,8.347l0,-4.774l4.23,2.387l-4.23,2.387Zm9.401,-6.417c-0.196,-0.915 -0.892,-1.591 -1.73,-1.692c-1.983,-0.238 -3.992,-0.239 -5.991,-0.238c-1.999,-0.001 -4.007,0 -5.991,0.238c-0.838,0.101 -1.534,0.777 -1.729,1.692c-0.279,1.304 -0.282,2.727 -0.282,4.07c0,1.343 0,2.766 0.278,4.07c0.196,0.915 0.892,1.591 1.73,1.692c1.983,0.238 3.992,0.239 5.991,0.238c1.999,0.001 4.007,0 5.991,-0.239c0.838,-0.1 1.534,-0.776 1.73,-1.691c0.278,-1.304 0.28,-2.727 0.28,-4.07c0,-1.343 0.001,-2.766 -0.277,-4.07" style="fill-rule:nonzero;" />
  </symbol>

  <symbol id="vk" viewBox="0 0 17 10">
    <path d="M8.668,9.958l0.956,0c0,0 0.289,-0.035 0.437,-0.209c0.136,-0.16 0.131,-0.46 0.131,-0.46c0,0 -0.018,-1.406 0.577,-1.613c0.587,-0.204 1.341,1.359 2.14,1.96c0.605,0.454 1.064,0.355 1.064,0.355l2.136,-0.033c0,0 1.118,-0.075 0.588,-1.038c-0.043,-0.079 -0.309,-0.712 -1.589,-2.014c-1.34,-1.362 -1.16,-1.142 0.454,-3.499c0.983,-1.435 1.376,-2.311 1.253,-2.686c-0.117,-0.358 -0.84,-0.263 -0.84,-0.263l-2.406,0.016c0,0 -0.178,-0.026 -0.311,0.06c-0.129,0.085 -0.212,0.283 -0.212,0.283c0,0 -0.381,1.11 -0.888,2.055c-1.072,1.993 -1.5,2.098 -1.675,1.974c-0.408,-0.288 -0.306,-1.158 -0.306,-1.776c0,-1.932 0.268,-2.737 -0.52,-2.946c-0.262,-0.069 -0.455,-0.114 -1.123,-0.122c-0.859,-0.009 -1.585,0.003 -1.997,0.224c-0.273,0.147 -0.485,0.474 -0.356,0.493c0.159,0.023 0.519,0.106 0.71,0.391c0.247,0.367 0.238,1.192 0.238,1.192c0,0 0.142,2.274 -0.331,2.556c-0.324,0.194 -0.769,-0.201 -1.724,-2.01c-0.489,-0.926 -0.859,-1.949 -0.859,-1.949c0,0 -0.071,-0.192 -0.198,-0.294c-0.154,-0.124 -0.37,-0.164 -0.37,-0.164l-2.286,0.017c0,0 -0.343,0.01 -0.469,0.174c-0.112,0.145 -0.009,0.446 -0.009,0.446c0,0 1.79,4.588 3.816,6.899c1.859,2.12 3.969,1.981 3.969,1.981" />
  </symbol>

  <symbol id="search" viewBox="0 0 16 16">
    <path d="M6.907,2.066c0.137,0 0.276,0.007 0.414,0.017c2.568,0.208 4.47,2.305 4.246,4.68c-0.209,2.214 -2.252,3.945 -4.65,3.945c-0.137,0 -0.274,-0.005 -0.411,-0.014c-2.564,-0.209 -4.467,-2.309 -4.242,-4.683c0.207,-2.213 2.246,-3.945 4.643,-3.945m6.752,13.934c0.544,0 1.08,-0.182 1.503,-0.508c0.482,-0.371 0.774,-0.893 0.829,-1.471c0.055,-0.577 -0.138,-1.14 -0.547,-1.586l-2.609,-2.763c0.542,-0.838 0.863,-1.751 0.958,-2.721c0.158,-1.7 -0.407,-3.358 -1.593,-4.669c-1.188,-1.307 -2.857,-2.11 -4.69,-2.257c-0.204,-0.016 -0.405,-0.025 -0.603,-0.025c-3.55,0 -6.571,2.564 -6.88,5.837c-0.16,1.698 0.405,3.356 1.591,4.666c1.19,1.308 2.854,2.113 4.69,2.259c0.197,0.018 0.394,0.026 0.589,0.026c0.783,0 1.557,-0.127 2.307,-0.371l2.659,2.806c0.404,0.444 0.97,0.719 1.587,0.769c0.07,0.005 0.138,0.008 0.209,0.008" style="fill-rule:nonzero;" />
  </symbol>

  <symbol id="mail" viewBox="0 0 16 13">
    <path d="M0.854,0.58l7.146,6.254l7.152,-6.254l-14.298,0Zm-0.854,10.993l3.957,-4.849l0.959,0.839l-4.094,5.017l14.357,0l-4.09,-5.02l0.959,-0.838l3.952,4.851l0,-10.021l-8,6.996l-8,-7.001l0,10.026Z" style="fill-rule:nonzero;" />
  </symbol>

  <symbol id="message" viewBox="0 0 16 14">
    <path d="M10.66,6.68c-0.51,0 -0.923,-0.427 -0.923,-0.955c0,-0.527 0.413,-0.955 0.923,-0.955c0.51,0 0.923,0.428 0.923,0.955c0,0.528 -0.413,0.955 -0.923,0.955m-2.667,0c-0.509,0 -0.923,-0.427 -0.923,-0.955c0,-0.527 0.414,-0.955 0.923,-0.955c0.51,0 0.924,0.428 0.924,0.955c0,0.528 -0.414,0.955 -0.924,0.955m-2.666,0c-0.51,0 -0.923,-0.427 -0.923,-0.955c0,-0.527 0.413,-0.955 0.923,-0.955c0.51,0 0.923,0.428 0.923,0.955c0,0.528 -0.413,0.955 -0.923,0.955m5.135,-6.68l-4.924,0c-3.058,0 -5.538,2.565 -5.538,5.729c0,3.164 2.48,5.725 5.538,5.725l4.302,0l0,2.227c0,0.284 0.331,0.426 0.525,0.225c4.365,-4.511 4.293,-4.345 4.707,-4.994c0.574,-0.904 0.928,-2.008 0.928,-3.183c0,-3.164 -2.48,-5.729 -5.538,-5.729" style="fill-rule:nonzero;" />
  </symbol>

  <symbol id="arrow-right-sm" viewBox="0 0 17 8">
    <path d="M16.894,3.743l-3.64,-3.637c-0.066,-0.066 -0.157,-0.106 -0.258,-0.106c-0.201,0 -0.364,0.163 -0.364,0.364c0,0.1 0.041,0.191 0.107,0.256l3.018,3.016l-14.408,0c-0.201,0 -0.364,0.163 -0.364,0.364c0,0.201 0.163,0.363 0.364,0.363l14.408,0l-3.018,3.016c-0.066,0.066 -0.107,0.157 -0.107,0.257c0,0.201 0.163,0.364 0.364,0.364c0.101,0 0.192,-0.04 0.258,-0.107l3.64,-3.636c0.066,-0.066 0.106,-0.156 0.106,-0.257c0,-0.101 -0.04,-0.191 -0.106,-0.257" style="fill-rule:nonzero;" />
  </symbol>

  <symbol id="arrow-right" viewBox="0 0 25 8">
    <path d="M24.894,3.743l-3.64,-3.637c-0.066,-0.066 -0.157,-0.106 -0.258,-0.106c-0.201,0 -0.364,0.163 -0.364,0.364c0,0.1 0.041,0.191 0.107,0.256l3.018,3.016l-22.408,0c-0.201,0 -0.364,0.163 -0.364,0.364c0,0.201 0.163,0.363 0.364,0.363l22.408,0l-3.018,3.016c-0.066,0.066 -0.107,0.157 -0.107,0.257c0,0.201 0.163,0.364 0.364,0.364c0.101,0 0.192,-0.04 0.258,-0.107l3.64,-3.636c0.066,-0.066 0.106,-0.156 0.106,-0.257c0,-0.101 -0.04,-0.191 -0.106,-0.257" style="fill-rule:nonzero;" />
  </symbol>

  <symbol id="arrow-news" viewBox="0 0 28 20">
    <path d="M27.414,10l-8.707,8.707l-1.414,-1.414l7.293,-7.293l-7.293,-7.293l1.414,-1.414l8.707,8.707Z" style="fill:#fff;" />
    <rect x="2" y="9" width="24" height="2" style="fill:#fff;" />
  </symbol>

  <symbol id="myp" viewBox="0 0 68 54">
    <path d="M52,13l-36,0" style="fill:none;stroke-width:2px;" />
    <path d="M16,28.04l36,-0.04" style="fill:none;stroke-width:2px;" />
    <rect x="52" y="11" width="5" height="19" style="fill:none;stroke-width:2px;" />
    <rect x="11" y="11" width="5" height="19" style="fill:none;stroke-width:2px;" />
    <path d="M34,28l0,-2l-2,-3.059l2,-2.941l5,-2.16" style="fill:none;stroke-width:2px;" />
    <path d="M31,17l3,3" style="fill:none;stroke-width:2px;" />
    <path d="M30,22.093l2,0.849" style="fill:none;stroke-width:2px;" />
    <path d="M38,31c-0.444,2.288 -3,3.735 -3,6.107c0,1.605 1.298,2.893 3,2.893c1.702,0 3,-1.288 3,-2.893c0,-2.372 -2.556,-3.819 -3,-6.107Z" style="fill:none;stroke-width:2px;stroke-linejoin:round;" />
    <path d="M30,37c-0.444,2.288 -3,3.735 -3,6.107c0,1.605 1.298,2.893 3,2.893c1.702,0 3,-1.288 3,-2.893c0,-2.372 -2.556,-3.819 -3,-6.107Z" style="fill:none;stroke-width:2px;stroke-linejoin:round;" />
    <path d="M35,44.032c6.196,0.267 11,2.165 11,4.468c0,2.485 -5.597,4.5 -12.5,4.5c-6.903,0 -12.5,-2.015 -12.5,-4.5c0,-1.304 1.54,-2.478 4,-3.3" style="fill:none;stroke-width:2px;stroke-linejoin:round;" />
  </symbol>

  <symbol id="mby" viewBox="0 0 44 48">
    <path d="M22.012,1c-1.945,2.623 -14.919,8 -20.012,8l0,19c0,8.933 18.889,18.705 20,18.987c1.112,-0.282 20,-10.737 20,-17.987l0,-20c-5.555,0 -18.044,-5.377 -19.988,-8Z" style="fill:none;stroke-width:2px;" />
    <path d="M33,25.494l-11,-11l-11,11" style="fill:none;stroke-width:2px;stroke-linejoin:miter;" />
    <path d="M30,22.494l0,12l-16,0l0,-12" style="fill:none;stroke-width:2px;stroke-linejoin:miter;" />
    <path d="M27,19.494l0,-6" style="fill:none;stroke-width:2px;stroke-linejoin:miter;" />
  </symbol>

  <symbol id="management-architecture" viewBox="0 0 46 49">
    <rect x="17" y="20" width="14" height="28" style="fill:none;stroke-width:2px;" />
    <rect x="19" y="15" width="10" height="5" style="fill:none;stroke-width:2px;" />
    <rect x="22" y="10" width="4" height="5" style="fill:none;stroke-width:2px;" />
    <path d="M21,28l6,0" style="fill:none;stroke-width:2px;" />
    <path d="M21,24l6,0" style="fill:none;stroke-width:2px;" />
    <path d="M21,32l6,0" style="fill:none;stroke-width:2px;" />
    <path d="M21,36l6,0" style="fill:none;stroke-width:2px;" />
    <path d="M21,40l6,0" style="fill:none;stroke-width:2px;" />
    <path d="M21,44l6,0" style="fill:none;stroke-width:2px;" />
    <path d="M12,36l2,0" style="fill:none;stroke-width:2px;" />
    <path d="M12,32l2,0" style="fill:none;stroke-width:2px;" />
    <path d="M12,28l2,0" style="fill:none;stroke-width:2px;" />
    <path d="M12,40l2,0" style="fill:none;stroke-width:2px;" />
    <path d="M12,44l2,0" style="fill:none;stroke-width:2px;" />
    <path d="M40,32l0,-5l-9,0" style="fill:none;stroke-width:2px;" />
    <path d="M24,10l0,-9" style="fill:none;stroke-width:2px;" />
    <path d="M31,23l6,0l0,4" style="fill:none;stroke-width:2px;" />
    <path d="M19,13l0,-6l-1,-1l-9,10l0,32l8,0" style="fill:none;stroke-width:2px;" />
    <path d="M9,32l-8,0l0,16l8,0" style="fill:none;stroke-width:2px;" />
    <path d="M3,32l0,-6l6,-5" style="fill:none;stroke-width:2px;" />
    <path d="M42,36l-6,0" style="fill:none;stroke-width:2px;" />
    <path d="M42,40l-6,0" style="fill:none;stroke-width:2px;" />
    <path d="M42,44l-6,0" style="fill:none;stroke-width:2px;" />
    <rect x="36" y="32" width="9" height="16" style="fill:none;stroke-width:2px;" />
    <path d="M31,48l5,0" style="fill:none;stroke-width:2px;" />
    <path d="M5,35l0,10" style="fill:none;stroke-width:2px;" />
    <path d="M42,27l-2,0" style="fill:none;stroke-width:2px;" />
  </symbol>

  <symbol id="property-management" viewBox="0 0 68 55">
    <path d="M48.683,53.378c5.865,-2.542 12.964,-7.963 3.57,-11.182c-9.972,-3.418 -19.858,-6.989 -11.57,-11.818" style="fill:none;stroke-width:2px;" />
    <path d="M30,53.262c7.169,-2.529 16.924,-6.284 10.779,-10.346c-4.586,-3.031 -6.902,-5.525 -7.022,-7.911" style="fill:none;stroke-width:2px;" />
    <path d="M50,23.378c0,2.738 -2.238,5 -5,5c-2.762,0 -5,-2.262 -5,-5c0,-2.738 5,-12 5,-12c0,0 5,9.262 5,12Z" style="fill:none;stroke-width:2px;stroke-linejoin:miter;" />
    <path d="M45,28.378l0,7" style="fill:none;stroke-width:2px;stroke-linejoin:miter;" />
    <path d="M51.476,19.452c0.818,-1.728 1.524,-3.074 1.524,-3.074c0,0 4,7.627 4,9.883c0,2.255 -1.791,4.117 -4,4.117c-1.073,0 -2.047,-0.44 -2.766,-1.151" style="fill:none;stroke-width:2px;stroke-linejoin:miter;" />
    <path d="M53,30.378l0,5" style="fill:none;stroke-width:2px;stroke-linejoin:miter;" />
    <path d="M28,31.378l0,16l-14,0l0,-16" style="fill:none;stroke-width:2px;" />
    <path d="M30,33.378l-9,-9l-9,9" style="fill:none;stroke-width:2px;" />
    <path d="M19,47.378l0,-6l4,0l0,6" style="fill:none;stroke-width:2px;" />
    <path d="M16,24.378l0,5" style="fill:none;stroke-width:2px;" />
    <path d="M35,20.378l-9,0c-0.386,-2.016 -2,-2.719 -3.821,-2.29c-0.75,-1.292 -2.133,-2.088 -3.734,-2.088c-2.381,0 -4.424,1.378 -4.445,4.378l-3,0" style="fill:none;stroke-width:2px;stroke-linejoin:miter;" />
    <path d="M39,15.378l-2.974,0c-0.579,-2.047 -2.191,-2.612 -3.847,-2.29c-0.75,-1.292 -2.133,-2.088 -3.734,-2.088c-2.381,0 -4.424,1.378 -4.445,4.378" style="fill:none;stroke-width:2px;stroke-linejoin:miter;" />
    <path d="M17,33.378l3,0" style="fill:none;stroke-width:2px;" />
    <path d="M22,33.378l3,0" style="fill:none;stroke-width:2px;" />
    <path d="M17,37.378l3,0" style="fill:none;stroke-width:2px;" />
    <path d="M22,37.378l3,0" style="fill:none;stroke-width:2px;" />
    <path d="M11,47.378l3,0" style="fill:none;stroke-width:2px;" />
    <path d="M28,47.378l3,0" style="fill:none;stroke-width:2px;" />
  </symbol>

  <symbol id="memo" viewBox="0 0 60 52">
    <path d="M49,33.447l-11.993,-11.868l-11.992,11.868" style="fill:none;stroke-width:2px;" />
    <path d="M28.285,30.21l0,9.711" style="fill:none;stroke-width:2px;" />
    <path d="M45.729,30.21l0,10.79" style="fill:none;stroke-width:2px;" />
    <path d="M42.459,26.974l0,-6.474" style="fill:none;stroke-width:2px;" />
    <path d="M33.136,11.578c0.346,0.353 0.536,0.752 0.554,1.194c0.105,2.769 -6.646,6.192 -14.97,7.747c-8.213,1.533 -15.447,0.775 -16.293,-1.783c-0.134,-0.406 -0.102,-0.834 0.081,-1.275" style="fill:none;stroke-width:2px;stroke-linecap:round;stroke-linejoin:round;" />
    <path d="M13.972,27.213c-1.074,0.096 -2.123,0.149 -3.131,0.161c-5.289,0.063 -9.404,-0.989 -9.783,-2.694c-0.071,-0.319 -0.009,-0.644 0.176,-0.967" style="fill:none;stroke-width:2px;stroke-linecap:round;stroke-linejoin:round;" />
    <path d="M26.265,21.794c0.08,0.174 0.121,0.355 0.118,0.542c-0.025,1.491 -2.805,2.999 -6.819,3.974" style="fill:none;stroke-width:2px;stroke-linecap:round;stroke-linejoin:round;" />
    <path d="M4.299,32.127c-1.789,-0.563 -2.931,-1.344 -3.013,-2.223" style="fill:none;stroke-width:2px;stroke-linecap:round;stroke-linejoin:round;" />
    <path d="M21.26,28.966c0.186,0.263 0.273,0.538 0.25,0.82c-0.149,1.787 -4.673,3.22 -10.103,3.25c-0.949,0.005 -1.871,-0.032 -2.747,-0.108" style="fill:none;stroke-width:2px;stroke-linecap:round;stroke-linejoin:round;" />
    <path d="M15.027,36.444c0.111,0.149 0.168,0.307 0.165,0.469c-0.014,1.034 -2.492,1.889 -5.533,1.917c-3.04,0.028 -5.543,-0.779 -5.591,-1.814c-0.008,-0.16 0.044,-0.317 0.15,-0.467" style="fill:none;stroke-width:2px;stroke-linecap:round;stroke-linejoin:round;" />
    <path d="M14.112,13.612c-6.018,0.432 -10.509,-0.52 -11.022,-2.638c-0.703,-2.887 6.245,-6.846 15.518,-8.844c9.273,-1.998 17.359,-1.277 18.06,1.611c0.601,2.468 -4.393,5.721 -11.653,7.861" style="fill:none;stroke-width:2px;stroke-linecap:round;stroke-linejoin:round;" />
  </symbol>

  <symbol id="jobs" viewBox="0 0 66 62">
    <path d="M33,33c2.29,0 4,-1.918 4,-4.285l0,-1.43c0,-2.366 -1.71,-4.285 -4,-4.285c-2.29,0 -4,1.919 -4,4.285l0,1.43c0,2.367 1.71,4.285 4,4.285Z" style="fill:none;;stroke-width:2px;" />
    <path d="M41,39l0,-2.042c0,-2.757 -5.344,-4 -8,-4c-2.657,0 -8,1.243 -8,4l0,2.042" style="fill:none;stroke-width:2px;" />
    <path d="M33,11c-11.046,0 -20,8.954 -20,20l0,1l-2,0l5,7l4,-7l-2,0l0,-1c0,-8.284 6.716,-15 15,-15c5.343,0 10.034,2.794 12.691,7.001" style="fill:none;stroke-width:2px;" />
    <path d="M43.081,13.722c0.695,0.407 1.364,0.854 2.002,1.339" style="fill:none;stroke-width:2px;" />
    <path d="M39.105,11.949c0.653,0.209 1.292,0.451 1.914,0.723" style="fill:none;stroke-width:2px;" />
    <path d="M35.045,11.103c0.63,0.064 1.252,0.157 1.864,0.278" style="fill:none;stroke-width:2px;" />
    <path d="M33.083,51c11.045,0 19.917,-8.954 19.917,-20l0,-1l2,0l-5,-7l-4,7l2,0l0,1c0,8.284 -6.542,15 -14.826,15c-5.343,0 -10.034,-2.794 -12.692,-7.001" style="fill:none;stroke-width:2px;" />
    <path d="M23.002,48.278c-0.695,-0.407 -1.364,-0.854 -2.002,-1.339" style="fill:none;stroke-width:2px;" />
    <path d="M26.977,50.051c-0.653,-0.209 -1.292,-0.451 -1.914,-0.724" style="fill:none;stroke-width:2px;" />
    <path d="M31.038,50.896c-0.63,-0.064 -1.252,-0.157 -1.864,-0.278" style="fill:none;stroke-width:2px;" />
  </symbol>

  <symbol id="areas" viewBox="0 0 62 52">
    <path d="M48.118,31.628l-6.765,0l0,-8.233" style="fill:none;stroke-width:2px;" />
    <path d="M36.647,20.535l14.353,0l0,20.465l-40,0l0,-20.465l14.353,0" style="fill:none;stroke-width:2px;" />
    <path d="M31,1c-4.418,0 -8.471,3.866 -8.471,8.372c0,6.426 6.342,7.879 8.471,14.884c2.129,-7.005 8.471,-8.458 8.471,-14.884c0,-4.506 -4.053,-8.372 -8.471,-8.372Z" style="fill:none;stroke-width:2px;stroke-linejoin:round;" />
    <ellipse cx="30.988" cy="9.36" rx="2.835" ry="2.779" style="fill:none;stroke-width:2px;stroke-linejoin:round;" />
    <path d="M37.588,23.395l0,4.582l-8.465,0l-3.77,3.721l-11.471,0" style="fill:none;stroke-width:2px;" />
    <path d="M25.353,38.14l0,-2.721l1.882,0l3.765,-3.721l6.588,0l0,6.442" style="fill:none;stroke-width:2px;" />
    <path d="M13.882,35.419l7.706,0l0,2.721" style="fill:none;stroke-width:2px;" />
    <path d="M13.882,27.977l7.706,0l0,-4.582" style="fill:none;stroke-width:2px;" />
    <path d="M41.353,38.14l0,-2.791l6.765,0" style="fill:none;stroke-width:2px;" />
  </symbol>

  <symbol id="evacuation" viewBox="0 0 48 50">
    <path d="M15,45l18,0" style="fill:none;stroke-width:2px;" />
    <path d="M41,45l6,0l0,-5l-1,-3c0,0 -5.031,-1.563 -12,-3c-2.711,-3.234 -7.125,-5 -9,-5l-8,0c-3.875,0 -9.281,4 -11,5l-3.008,0c-0.553,0 -0.993,0.447 -0.992,1l0,4l-1,2l0,2c0,1.104 0.896,2 2,2l4,0" style="fill:none;stroke-width:2px;" />
    <path d="M32,35l-2,1l-9,0l-2,-5" style="fill:none;stroke-width:2px;" />
    <path d="M21,36l-11,0l-1,-1" style="fill:none;stroke-width:2px;" />
    <path d="M32.995,45.003c0,2.206 1.794,3.997 4.003,3.997c2.209,0 4.002,-1.791 4.002,-3.998c0,-2.206 -1.793,-3.997 -4.002,-3.997c-2.209,0 -4.003,1.791 -4.003,3.997Z" style="fill:none;stroke-width:2px;" />
    <path d="M7,45.003c0,2.206 1.793,3.997 4.002,3.997c2.21,0 4.003,-1.791 4.003,-3.998c0,-2.206 -1.793,-3.997 -4.003,-3.997c-2.209,0 -4.002,1.791 -4.002,3.997Z" style="fill:none;stroke-width:2px;" />
    <path d="M35.5,25l5,4" style="fill:none;stroke-width:2px;stroke-linecap:round;" />
    <path d="M15.5,29l10,-9c0.812,-0.812 1.937,-1.03 3,-1" style="fill:none;stroke-width:2px;stroke-linecap:round;" />
    <path d="M20.5,1l0,6l3,3l10,0l3,-3l0,-6l-16,0Z" style="fill:none;stroke-width:2px;" />
    <path d="M25.273,24.359c0.956,0.411 2.05,0.641 3.228,0.641c3.562,0 5.444,-3.111 6,-5c0.293,-1 -1.707,-1.895 -2,-1c-0.329,1 -1.572,2 -2.5,2c-1.381,0 -2.5,-1.12 -2.5,-2.5c0,-0.819 0.392,-1.544 1,-2c1.779,-1.286 3,-2.108 3,-4.258l0,-2.242" style="fill:none;stroke-width:2px;" />
    <path d="M25.5,10l0,2c0,1.792 -4,2.437 -4,7c0,1.378 0.503,2.631 1.37,3.631" style="fill:none;stroke-width:2px;" />
  </symbol>

  <symbol id="documents" viewBox="0 0 48 48">
    <path d="M16.417,17.125l0,-6.348l2.806,-2.821l11.224,0l0,9.169" style="fill:none;stroke-width:1.5px;" />
    <path d="M17.82,12.188l2.806,0l0,-2.821" style="fill:none;stroke-width:1.5px;" />
    <path d="M22.029,36.62l-9.08,3.084l-4.949,-14.689l1.758,-3.574l10.631,-3.61l1.901,5.641" style="fill:none;stroke-width:1.5px;" />
    <path d="M9.779,25.899l2.658,-0.903l-0.9,-2.67" style="fill:none;stroke-width:1.5px;" />
    <path d="M30.395,39.956l-11.915,-7.442l8.128,-13.18l3.86,-0.909l9.532,5.953l-9.605,15.578Z" style="fill:none;stroke-width:1.5px;" />
    <path d="M27.06,21.276l2.383,1.488l1.478,-2.396" style="fill:none;stroke-width:1.5px;" />
  </symbol>

  <symbol id="standards" viewBox="0 0 48 50">
    <path d="M34.43,13.042c-0.789,0.313 -1.75,0.497 -2.785,0.497" style="fill:none;stroke-width:1.5px;" />
    <path d="M34.43,18.239l0,-5.199c1.261,-0.501 2.089,-1.331 2.089,-2.271c0,-1.529 -2.182,-2.769 -4.874,-2.769c-2.692,0 -4.874,1.24 -4.874,2.769c0,0.94 0.827,1.77 2.089,2.271l0,5.199c0,1.326 -0.9,2.227 -2.176,2.691c-1.237,0.449 -2.002,1.264 -2.002,2.137l0,3.894c0,1.763 3.117,3.193 6.963,3.193c3.845,0 6.962,-1.43 6.962,-3.193l0,-3.894c0,-0.873 -0.764,-1.688 -2.001,-2.137c-1.277,-0.464 -2.176,-1.365 -2.176,-2.691Z" style="fill:none;stroke-width:1.5px;" />
    <path d="M26.879,25.755c1.246,0.581 2.922,0.937 4.766,0.937c3.845,0 6.963,-1.549 6.963,-3.462" style="fill:none;stroke-width:1.5px;" />
    <path d="M25.378,12.846l-11.357,0l-6.049,22.154l32.028,0l-0.943,-3.457" style="fill:none;stroke-width:1.5px;" />
    <path d="M16.327,16.308l9.748,0" style="fill:none;stroke-width:1.5px;" />
    <path d="M15.631,19.077l9.747,0" style="fill:none;stroke-width:1.5px;" />
  </symbol>

  <symbol id="regulations" viewBox="0 0 46 48">
    <path d="M18.909,37.957l0,-1.225c0,0 2.046,-1.532 2.046,-3.404l0,-1.498" style="fill:none;stroke-width:1.5px;" />
    <path d="M13.455,24.34l-2.728,2.179c-0.964,0.883 -1.363,1.386 -1.363,2.724l0,4.622l0,4.229" style="fill:none;stroke-width:1.5px;" />
    <path d="M8,40l0,-2.043l12.273,0l0,2.043" style="fill:none;stroke-width:1.5px;" />
    <path d="M11.884,31.285c0,0 4.199,-4.193 5.455,-5.447c1.255,-1.254 3.311,1.189 1.814,3.057c-0.735,0.734 -1.608,1.709 -1.608,1.709l0,1.362c0,2.67 -2.429,3.404 -2.83,3.404" style="fill:none;stroke-width:1.5px;" />
    <path d="M34.591,11.404l3.409,0l0,-0.681c0,-1.566 -1.221,-2.723 -2.727,-2.723l-2.728,0" style="fill:none;stroke-width:1.5px;" />
    <path d="M13.455,29.787l0,-18.383c0,-1.88 1.526,-3.404 3.409,-3.404l19.091,0c-1.883,0 -3.41,1.524 -3.41,3.404l0,21.107l-15,0" style="fill:none;stroke-width:1.5px;" />
    <path d="M17.545,14.128l10.91,0" style="fill:none;stroke-width:1.5px;" />
    <path d="M17.545,17.532l10.91,0" style="fill:none;stroke-width:1.5px;" />
    <path d="M17.545,20.936l6.819,0" style="fill:none;stroke-width:1.5px;" />
    <path d="M27.091,24.34l0.682,0.681l1.363,0l0,1.362l0.682,0.681l-0.682,0.681l0,1.361l-1.363,0l-0.682,0.681l-0.682,-0.681l-1.364,0l0,-1.361l-0.681,-0.681l0.681,-0.681l0,-1.362l1.364,0l0.682,-0.681Z" style="fill:none;stroke-width:1.5px;" />
  </symbol>

  <symbol id="hearings" viewBox="0 0 48 40">
    <path d="M23.31,14.813c1.593,0 2.783,-1.315 2.783,-2.938l0,-0.981c0,-1.622 -1.19,-2.938 -2.783,-2.938c-1.594,0 -2.784,1.316 -2.784,2.938l0,0.981c0,1.623 1.19,2.938 2.784,2.938Z" style="fill:none;stroke-width:1.5px;" />
    <path d="M28.877,19.613l0,-2.086c0,-1.89 -3.486,-2.742 -5.219,-2.742c-1.734,0 -5.22,0.852 -5.22,2.742l0,2.086" style="fill:none;stroke-width:1.5px;" />
    <path d="M24.006,27.156c1.593,0 2.783,-1.315 2.783,-2.938l0,-0.981c0,-1.622 -1.19,-2.938 -2.783,-2.938c-1.594,0 -2.784,1.316 -2.784,2.938l0,0.981c0,1.623 1.19,2.938 2.784,2.938Z" style="fill:none;stroke-width:1.5px;" />
    <path d="M29.573,31.956l0,-2.086c0,-1.89 -3.487,-2.743 -5.219,-2.743c-1.734,0 -5.22,0.853 -5.22,2.743l0,2.086" style="fill:none;stroke-width:1.5px;" />
    <path d="M34.444,20.985c1.594,0 2.784,-1.315 2.784,-2.939l0,-0.98c0,-1.622 -1.19,-2.938 -2.784,-2.938c-1.593,0 -2.783,1.316 -2.783,2.938l0,0.98c0,1.624 1.19,2.939 2.783,2.939Z" style="fill:none;stroke-width:1.5px;" />
    <path d="M40.011,25.785l0,-2.086c0,-1.891 -3.486,-2.743 -5.219,-2.743c-1.733,0 -5.219,0.852 -5.219,2.743l0,2.086" style="fill:none;stroke-width:1.5px;" />
    <path d="M12.871,20.985c1.594,0 2.784,-1.315 2.784,-2.939l0,-0.98c0,-1.622 -1.19,-2.938 -2.784,-2.938c-1.593,0 -2.783,1.316 -2.783,2.938l0,0.98c0,1.624 1.19,2.939 2.783,2.939Z" style="fill:none;stroke-width:1.5px;" />
    <path d="M18.438,25.785l0,-2.086c0,-1.891 -3.486,-2.743 -5.219,-2.743c-1.733,0 -5.219,0.852 -5.219,2.743l0,2.086" style="fill:none;stroke-width:1.5px;" />
  </symbol>

  <symbol id="solutions" viewBox="0 0 48 42">
    <path d="M12.958,21.789c0,0 1.798,-1.772 2.197,-2.165c0.399,-0.392 0.934,-0.561 0.824,-1.912c-0.111,-1.35 0.107,-2.912 1.027,-3.819l0.414,-0.408" style="fill:none;stroke-width:1.5px;" />
    <path d="M18.907,15.928l6.114,-6.024c0.745,-0.734 2.006,-0.67 2.679,0.035c2.016,2.111 7.248,7.767 6.235,8.766l-6.694,6.595c-1.161,1.145 -3.74,0.755 -4.318,1.324c-0.578,0.569 -2.529,2.492 -2.529,2.492" style="fill:none;stroke-width:1.5px;" />
    <path d="M21.386,30.092l-3.966,3.908l-9.42,-9.281l3.966,-3.907l9.42,9.28Z" style="fill:none;stroke-width:1.5px;" />
    <path d="M11.471,24.231l1.487,1.465" style="fill:none;stroke-width:1.5px;" />
    <path d="M32.292,20.324l0.496,0.488c0.446,0.439 0.798,0.623 1.983,0c1.15,-0.604 2.072,-0.889 2.479,-0.488l2.479,2.442c0.821,0.809 -0.237,3.163 -2.975,5.861c-2.738,2.698 -5.127,3.74 -5.949,2.931l-2.478,-2.442c-0.407,-0.402 -0.118,-1.31 0.495,-2.443c0.632,-1.167 0.446,-1.515 0,-1.954l-0.495,-0.488" style="fill:none;stroke-width:1.5px;" />
    <path d="M32.715,27.578c0.501,-0.4 1.024,-0.865 1.561,-1.393c2.738,-2.697 3.796,-5.052 2.974,-5.861" style="fill:none;stroke-width:1.5px;" />
    <path d="M28.327,29.115c0.532,0.525 1.726,0.271 3.246,-0.709" style="fill:none;stroke-width:1.5px;" />
    <path d="M23.369,11.532c0.647,-1.316 0.538,-2.335 -0.11,-2.973c-1.053,-1.038 -3.205,-0.6 -4.894,1.064c-1.689,1.664 -2.051,3.704 -0.998,4.742c0.648,0.637 1.691,0.734 3.027,0.097" style="fill:none;stroke-width:1.5px;" />
  </symbol>

  <symbol id="auctions" viewBox="0 0 32 31">
    <path d="M30.657,28.401c-0.425,0.435 -3.205,1.228 -8.152,1.228c-4.947,0 -7.726,-0.792 -8.15,-1.227l0,-2.496c0.062,-0.057 0.245,-0.187 0.679,-0.346c1.02,0.808 4.308,1.218 7.569,1.218c0.996,0 1.989,-0.038 2.913,-0.114l-0.112,-1.323c-3.929,0.327 -7.516,-0.085 -8.939,-0.533l0,-1.074c0.448,-0.315 2.552,-0.852 6.04,-0.852c3.489,0 5.594,0.537 6.04,0.852l0,1.094c-0.303,0.093 -0.722,0.195 -1.32,0.294l0.222,1.309c1.273,-0.211 2.117,-0.485 2.597,-0.847c0.389,0.149 0.553,0.267 0.613,0.321l0,2.496Zm-0.769,-4.267l0,-0.541c0,-1.891 -5.651,-2.037 -7.383,-2.037c-1.732,0 -7.383,0.146 -7.383,2.037l0,0.541c-1.02,0.291 -2.111,0.775 -2.111,1.682l0,2.669c0,2.352 7.909,2.471 9.494,2.471c1.586,0 9.495,-0.119 9.495,-2.471l0,-2.669c0,-0.907 -1.091,-1.391 -2.112,-1.682m-25.168,0.356c-0.663,0.481 -1.242,0.725 -1.722,0.725c-0.296,0 -0.747,-0.078 -1.249,-0.753c-0.521,-0.701 -0.825,-1.583 0.863,-2.808c1.07,-0.777 14.056,-9.26 14.187,-9.345l0.589,-0.384l-0.667,-0.898c0.04,-0.083 0.131,-0.231 0.287,-0.435l1.918,-1.39l-0.794,-1.07l-1.462,1.059l-0.629,-0.846l-0.477,0.178c-0.292,0.11 -0.474,0.151 -0.581,0.166l-0.729,-0.981c0.208,-0.452 1.278,-1.688 3.37,-3.205c1.981,-1.437 3.524,-2.132 4.108,-2.212l0.726,0.977c-0.045,0.093 -0.14,0.253 -0.335,0.499l-0.314,0.396l0.628,0.846l-1.255,0.911l0.795,1.07l1.718,-1.246c0.242,-0.086 0.404,-0.124 0.5,-0.138l2.792,3.757c-0.04,0.082 -0.132,0.23 -0.288,0.433l-1.846,1.339l0.796,1.07l1.388,-1.008l0.629,0.847l0.477,-0.178c0.292,-0.109 0.475,-0.15 0.582,-0.166l0.729,0.982c-0.208,0.45 -1.278,1.687 -3.371,3.204c-1.982,1.437 -3.524,2.133 -4.108,2.212l-0.726,-0.977c0.046,-0.092 0.14,-0.253 0.335,-0.498l0.315,-0.396l-0.629,-0.846l1.481,-1.075l-0.794,-1.07l-1.944,1.41c-0.243,0.086 -0.405,0.124 -0.501,0.137l-0.827,-1.113l-0.546,0.425c-0.123,0.096 -12.348,9.619 -13.419,10.395m13.829,-8.76c0.185,0.248 0.645,0.526 1.529,0.288l0.147,0.198c-0.281,0.43 -0.545,1.035 -0.178,1.529l0.963,1.296c0.133,0.178 0.394,0.392 0.879,0.392c1.16,0 3.338,-1.279 4.989,-2.477c1.45,-1.051 4.718,-3.633 3.772,-4.907l-0.962,-1.295c-0.185,-0.248 -0.646,-0.527 -1.529,-0.289l-0.147,-0.198c0.28,-0.429 0.545,-1.034 0.177,-1.529l-3.031,-4.078c-0.184,-0.248 -0.643,-0.527 -1.528,-0.289l-0.147,-0.198c0.28,-0.43 0.544,-1.035 0.177,-1.53l-0.962,-1.294c-0.134,-0.179 -0.394,-0.393 -0.88,-0.393c-1.16,0 -3.338,1.279 -4.989,2.478c-1.179,0.855 -2.221,1.757 -2.937,2.541c-0.664,0.73 -1.36,1.658 -0.834,2.366l0.962,1.294c0.183,0.247 0.643,0.526 1.528,0.289l0.147,0.197c-0.267,0.412 -0.52,0.983 -0.222,1.463c-2.591,1.693 -12.68,8.292 -13.656,9c-2.609,1.892 -1.841,3.734 -1.151,4.664c0.639,0.858 1.423,1.294 2.332,1.294c0.783,0 1.605,-0.321 2.517,-0.982c0.97,-0.704 10.48,-8.106 12.91,-9.998l0.124,0.168Z" style="stroke:none;fill-rule:nonzero;" />
  </symbol>

  <symbol id="hotels" viewBox="0 0 48 34">
    <path d="M17.739,13.76c-1.101,1.23 -2.782,4.32 -2.782,4.32l5.565,5.76l1.391,0c0,0 6.261,-5.76 9.044,-5.76l6.26,0l0,-1.44c0,-1.193 -0.304,-1.845 -2.043,-2.362c-1.74,-0.518 -8.478,-1.958 -11.87,-1.958c-3.391,0 -4.501,0.251 -5.565,1.44Z" style="fill:none;stroke-width:1.5px;" />
    <path d="M40,11.6l0,14.4l-1.391,0l-1.392,-3.6l-13.217,0" style="fill:none;stroke-width:1.5px;" />
    <path d="M8,8l0,10.08l6.957,0" style="fill:none;stroke-width:1.5px;" />
    <path d="M19.13,22.4l-8.347,0l-1.392,3.6l-1.391,0l0,-7.92" style="fill:none;stroke-width:1.5px;" />
    <path d="M37.217,18.08l2.783,0" style="fill:none;stroke-width:1.5px;" />
    <path d="M16.914,14.84c-0.385,-1.041 -1.582,-1.8 -3.001,-1.8c-1.729,0 -3.13,0.72 -3.13,2.52l0,1.08c0,0.675 0.696,1.44 1.391,1.44" style="fill:none;stroke-width:1.5px;" />
  </symbol>

  <symbol id="complexes" viewBox="0 0 34 32">
    <path d="M9.667,31.014l0,-18.92l14.666,0l0,18.92" style="fill:none;stroke-width:1.5px;" />
    <path d="M11.667,12.094l0,-3.379l10.666,0l0,3.379" style="fill:none;stroke-width:1.5px;" />
    <path d="M15,31.014l0,-3.379l4,0l0,3.379" style="fill:none;stroke-width:1.5px;" />
    <path d="M13,18.851l0,-2.703l2.667,0l0,2.703" style="fill:none;stroke-width:1.5px;" />
    <path d="M13,24.256l0,-2.702l2.667,0l0,2.702" style="fill:none;stroke-width:1.5px;" />
    <path d="M18.333,18.851l0,-2.703l2.667,0l0,2.703" style="fill:none;stroke-width:1.5px;" />
    <path d="M18.333,24.256l0,-2.702l2.667,0l0,2.702" style="fill:none;stroke-width:1.5px;" />
    <path d="M1,31.014l32,0" style="fill:none;stroke-width:1.5px;" />
    <path d="M24.333,4.661l-4.6,0c-0.342,-0.676 -1.144,-1.372 -2.08,-1.372c-0.296,0 -0.58,0.071 -0.839,0.177c-0.521,-1.409 -1.858,-2.466 -3.43,-2.466c-2.023,0 -3.662,2.31 -3.666,3.661l-5.385,0" style="fill:none;stroke-width:1.5px;" />
    <path d="M6.333,8.715l-4.666,0" style="fill:none;stroke-width:1.5px;" />
    <path d="M7.667,8.715l1.333,0" style="fill:none;stroke-width:1.5px;" />
    <path d="M25.667,4.661l1.333,0" style="fill:none;stroke-width:1.5px;" />
    <path d="M28.333,4.661l1.334,0" style="fill:none;stroke-width:1.5px;" />
    <path d="M26.333,22.229l2,0" style="fill:none;stroke-width:1.5px;" />
    <path d="M26.333,24.932l2,0" style="fill:none;stroke-width:1.5px;" />
    <path d="M26.333,27.635l2,0" style="fill:none;stroke-width:1.5px;" />
    <path d="M30.333,31.014l0,-11.487l-6,0" style="fill:none;stroke-width:1.5px;" />
    <path d="M28.333,19.527l0,-3.379l-4,0" style="fill:none;stroke-width:1.5px;" />
    <path d="M7.667,22.229l-2,0" style="fill:none;stroke-width:1.5px;" />
    <path d="M7.667,24.932l-2,0" style="fill:none;stroke-width:1.5px;" />
    <path d="M7.667,27.635l-2,0" style="fill:none;stroke-width:1.5px;" />
    <path d="M3.667,31.014l0,-11.487l6,0" style="fill:none;stroke-width:1.5px;" />
    <path d="M5.667,19.527l0,-3.379l4,0" style="fill:none;stroke-width:1.5px;" />
  </symbol>

  <symbol id="health-care" viewBox="0 0 28 34">
    <path d="M14.008,1c-1.265,1.825 -9.698,5.567 -13.008,5.567l0,13.221c0,6.215 12.278,13.016 13,13.212c0.723,-0.196 13,-7.471 13,-12.516l0,-13.917c-3.611,0 -11.729,-3.742 -12.992,-5.567Z" style="fill:none;stroke-width:1.5px;" />
    <path d="M21.551,24.16c1.547,-1.485 2.712,-3.065 2.712,-4.434l0,-10.89c-2.851,0 -9.259,-2.928 -10.257,-4.357c-0.403,0.577 -1.731,1.399 -3.341,2.174" style="fill:none;stroke-width:1.5px;" />
    <path d="M7.807,7.858c-1.583,0.577 -3.103,0.977 -4.07,0.977l0,10.347c0,4.864 9.693,10.195 10.263,10.348c0.259,-0.07 2.393,-1.288 4.649,-2.956" style="fill:none;stroke-width:1.5px;" />
    <path d="M15.369,15.613l0,-2.784l-2.737,0l0,2.784l-2.737,0l0,2.783l2.737,0l0,2.784l2.737,0l0,-2.784l2.736,0l0,-2.783l-2.736,0Z" style="fill:none;stroke-width:1.5px;stroke-linejoin:miter;" />
  </symbol>

  <symbol id="exhibition" viewBox="0 0 34 32">
    <path d="M33,11.909c0,-0.819 -0.376,-1.546 -0.959,-2.045c0.583,-0.5 0.959,-1.226 0.959,-2.046c0,-1.506 -1.246,-2.727 -2.783,-2.727c-0.836,0 -1.577,0.369 -2.087,0.94c-0.509,-0.571 -1.25,-0.94 -2.087,-0.94c-1,0 -1.865,0.583 -2.352,1.364l-13.382,0c-0.487,-0.781 -1.352,-1.364 -2.352,-1.364c-0.837,0 -1.578,0.369 -2.087,0.94c-0.51,-0.571 -1.251,-0.94 -2.087,-0.94c-1.537,0 -2.783,1.221 -2.783,2.727c0,0.82 0.376,1.546 0.959,2.046c-0.583,0.499 -0.959,1.226 -0.959,2.045c0,1.006 0.563,1.872 1.391,2.343l0,7.587c-0.828,0.471 -1.391,1.336 -1.391,2.343c0,0.819 0.376,1.546 0.959,2.045c-0.583,0.5 -0.959,1.226 -0.959,2.046c0,1.506 1.246,2.727 2.783,2.727c0.836,0 1.577,-0.369 2.087,-0.94c0.509,0.571 1.25,0.94 2.087,0.94c1,0 1.865,-0.583 2.352,-1.364l13.382,0c0.487,0.781 1.352,1.364 2.352,1.364c0.837,0 1.578,-0.369 2.087,-0.94c0.51,0.571 1.251,0.94 2.087,0.94c1.537,0 2.783,-1.221 2.783,-2.727c0,-0.82 -0.376,-1.546 -0.959,-2.046c0.583,-0.499 0.959,-1.226 0.959,-2.045c0,-1.007 -0.563,-1.872 -1.391,-2.343l0,-7.587c0.828,-0.471 1.391,-1.337 1.391,-2.343Z" style="fill:none;stroke-width:1.5px;" />
    <rect x="5.174" y="9.182" width="23.652" height="17.727" style="fill:none;stroke-width:1.5px;" />
    <path d="M14.217,4.409l3.479,-3.409l3.478,3.409" style="fill:none;stroke-width:1.5px;" />
    <path d="M26.043,13.955c0,-1.129 -0.935,-2.046 -2.086,-2.046c-1.152,0 -2.087,0.917 -2.087,2.046c0,1.128 0.935,2.045 2.087,2.045c1.151,0 2.086,-0.917 2.086,-2.045Z" style="fill:none;stroke-width:1.5px;" />
    <path d="M21.174,23.5l-7.652,-7.5l-8.348,8.864l0,2.045l23.652,0l0,-1.364l-7.652,-6.818l-2.087,2.046" style="fill:none;stroke-width:1.5px;" />
  </symbol>

  <symbol id="parks" viewBox="0 0 35 35">
    <path d="M24.545,33l0,-19.452" style="fill:none;stroke-width:1.5px;" />
    <path d="M21.636,19.312l2.909,2.882" style="fill:none;stroke-width:1.5px;" />
    <path d="M26.727,16.43l-2.182,2.161" style="fill:none;stroke-width:1.5px;" />
    <path d="M5.636,30.118l0,2.882" style="fill:none;stroke-width:1.5px;stroke-linejoin:round;" />
    <path d="M6.364,22.914l0,7.204" style="fill:none;stroke-width:1.5px;stroke-linejoin:round;" />
    <path d="M19.455,30.118l0,2.882" style="fill:none;stroke-width:1.5px;stroke-linejoin:round;" />
    <path d="M18.727,22.914l0,7.204" style="fill:none;stroke-width:1.5px;stroke-linejoin:round;" />
    <rect x="6.364" y="24.355" width="12.364" height="2.882" style="fill:none;stroke-width:1.5px;stroke-linejoin:round;" />
    <path d="M4.182,30.118l16.727,0" style="fill:none;stroke-width:1.5px;stroke-linejoin:round;" />
    <path d="M20.909,25.075l7.647,0c3.007,0 5.444,-2.497 5.444,-5.577c0,-2.587 -1.724,-4.757 -4.057,-5.386c-0.333,-2.754 -2.62,-4.886 -5.398,-4.886c-2.777,0 -5.064,2.132 -5.397,4.886c-2.333,0.629 -4.057,2.799 -4.057,5.386c0,0.894 0.205,1.738 0.569,2.486" style="fill:none;stroke-width:1.5px;" />
    <path d="M17.304,11.41c-0.613,-0.466 -1.38,-0.743 -2.213,-0.743c-1.762,0 -3.23,1.241 -3.564,2.889c-0.025,-0.001 -0.047,-0.007 -0.072,-0.007c-2.009,0 -3.636,1.612 -3.636,3.602c0,1.989 1.627,3.602 3.636,3.602l1.454,0" style="fill:none;stroke-width:1.5px;" />
    <path d="M26.727,4.903l-5.019,0c-0.372,-0.72 -1.247,-1.463 -2.268,-1.463c-0.324,0 -0.633,0.076 -0.916,0.189c-0.568,-1.502 -2.027,-2.629 -3.741,-2.629c-2.207,0 -3.995,2.462 -4,3.903l-5.874,0" style="fill:none;stroke-width:1.5px;stroke-linejoin:round;" />
    <path d="M7.091,9.226l-5.091,0" style="fill:none;stroke-width:1.5px;stroke-linejoin:round;" />
    <path d="M8.545,9.226l1.455,0" style="fill:none;stroke-width:1.5px;stroke-linejoin:round;" />
    <path d="M28.182,4.903l1.454,0" style="fill:none;stroke-width:1.5px;stroke-linejoin:round;" />
    <path d="M31.091,4.903l1.454,0" style="fill:none;stroke-width:1.5px;stroke-linejoin:round;" />
  </symbol>

  <symbol id="theaters" viewBox="0 0 48 44">
    <path d="M16.341,15.249c-3.323,1.077 -6.352,2.738 -8.503,4.589c2.672,9.623 8.121,15.215 15.758,16.114c0.893,-0.868 1.513,-1.781 1.882,-2.83" style="fill:none;stroke-width:1.5px;" />
    <path d="M13.544,26.239c0.232,0.669 1.46,0.803 2.595,0.421c1.134,-0.383 1.853,-1.192 1.884,-1.55" style="fill:none;stroke-width:1.5px;" />
    <path d="M29.095,33.123c7.453,-3.54 11.49,-9.385 10.628,-23.073c-2.947,-1.189 -6.775,-2.062 -10.628,-2.098c-3.853,0.036 -7.681,0.909 -10.628,2.098c-0.861,13.688 3.175,19.533 10.628,23.073Z" style="fill:none;stroke-width:1.5px;" />
    <path d="M34.055,24.033c-1.412,0.516 -3.398,0.667 -4.96,0.7c-1.562,-0.033 -3.548,-0.184 -4.96,-0.7c-0.471,-0.172 1.928,4.195 4.96,4.195c3.032,0 5.43,-4.367 4.96,-4.195Z" style="fill:none;stroke-width:1.5px;" />
    <path d="M30.512,19.139c0,-1.019 1.063,-2.097 2.834,-2.097c1.772,0 3.543,1.26 3.543,2.097" style="fill:none;stroke-width:1.5px;" />
    <path d="M21.301,19.139c0,-0.837 1.771,-2.097 3.543,-2.097c1.771,0 2.834,1.078 2.834,2.097" style="fill:none;stroke-width:1.5px;" />
  </symbol>

  <symbol id="arrow-down" viewBox="0 0 20 29">
    <path d="M18.707,18.963l-8.707,8.707l-8.707,-8.707l1.414,-1.414l7.293,7.293l7.293,-7.293l1.414,1.414Z" style="" />
    <path d="M11,26.256l-2,0l0,-24l2,0l0,24Z" style="" />
  </symbol>

  <symbol id="signature" viewBox="0 0 16 16">
    <path d="M15.317,0.683c-0.51,-0.51 -1.228,-0.756 -1.944,-0.664l-8.815,8.869l2.554,2.554l8.869,-8.816c0.091,-0.715 -0.154,-1.433 -0.664,-1.943m-9.08,11.629l0.003,-0.004l-2.548,-2.548l-0.004,0.003l0,2.549l2.549,0Zm6.056,1.844l-10.449,0l0,-10.449l5.234,0l1.844,-1.844l-8.922,0l0,14.137l14.137,0l0,-8.922l-1.844,1.844l0,5.234Z" style="fill-rule:nonzero;" />
  </symbol>

  <symbol id="date" viewBox="0 0 16 16">
    <path d="M15.206,15.217l-14.412,0l0,-13.093l2.701,0l0,0.831c0,0.217 0.178,0.392 0.397,0.392c0.219,0 0.397,-0.175 0.397,-0.392l0,-0.831l1.945,0l0,0.831c0,0.217 0.177,0.392 0.397,0.392c0.219,0 0.396,-0.175 0.396,-0.392l0,-0.831l1.946,0l0,0.831c0,0.217 0.177,0.392 0.396,0.392c0.219,0 0.397,-0.175 0.397,-0.392l0,-0.831l1.945,0l0,0.831c0,0.217 0.178,0.392 0.397,0.392c0.219,0 0.397,-0.175 0.397,-0.392l0,-0.831l2.701,0l0,13.093Zm-1.329,-13.876l-0.909,0l-0.463,0l0,-0.949c0,-0.217 -0.178,-0.392 -0.397,-0.392c-0.219,0 -0.397,0.175 -0.397,0.392l0,0.949l-1.945,0l0,-0.949c0,-0.217 -0.178,-0.392 -0.397,-0.392c-0.219,0 -0.396,0.175 -0.396,0.392l0,0.949l-1.946,0l0,-0.949c0,-0.217 -0.177,-0.392 -0.396,-0.392c-0.22,0 -0.397,0.175 -0.397,0.392l0,0.949l-1.945,0l0,-0.949c0,-0.217 -0.178,-0.392 -0.397,-0.392c-0.219,0 -0.397,0.175 -0.397,0.392l0,0.949l-3.495,0l0,14.659l16,0l0,-14.659l-2.123,0Z" style="fill-rule:nonzero;" />
    <path d="M12.416,6.277l-4.311,6.466l-0.063,0.006l-4.396,-4.395l0.708,-0.708l3.568,3.569l3.662,-5.492l0.832,0.554Z" style="" />
  </symbol>

  <symbol id="periods" viewBox="0 0 16 16">
    <path d="M15.206,15.217l-14.412,0l0,-13.093l2.701,0l0,0.831c0,0.217 0.178,0.392 0.397,0.392c0.219,0 0.397,-0.175 0.397,-0.392l0,-0.831l1.945,0l0,0.831c0,0.217 0.177,0.392 0.397,0.392c0.219,0 0.396,-0.175 0.396,-0.392l0,-0.831l1.946,0l0,0.831c0,0.217 0.177,0.392 0.396,0.392c0.219,0 0.397,-0.175 0.397,-0.392l0,-0.831l1.945,0l0,0.831c0,0.217 0.178,0.392 0.397,0.392c0.219,0 0.397,-0.175 0.397,-0.392l0,-0.831l2.701,0l0,13.093Zm-1.329,-13.876l-0.909,0l-0.463,0l0,-0.949c0,-0.217 -0.178,-0.392 -0.397,-0.392c-0.219,0 -0.397,0.175 -0.397,0.392l0,0.949l-1.945,0l0,-0.949c0,-0.217 -0.178,-0.392 -0.397,-0.392c-0.219,0 -0.396,0.175 -0.396,0.392l0,0.949l-1.946,0l0,-0.949c0,-0.217 -0.177,-0.392 -0.396,-0.392c-0.22,0 -0.397,0.175 -0.397,0.392l0,0.949l-1.945,0l0,-0.949c0,-0.217 -0.178,-0.392 -0.397,-0.392c-0.219,0 -0.397,0.175 -0.397,0.392l0,0.949l-3.495,0l0,14.659l16,0l0,-14.659l-2.123,0Z" style="fill-rule:nonzero;" />
    <rect x="3.401" y="8.634" width="0.995" height="0.983" style="" />
    <rect x="3.409" y="11.303" width="0.996" height="0.982" style="" />
    <rect x="6.139" y="11.303" width="0.995" height="0.982" style="" />
    <rect x="8.87" y="11.303" width="0.995" height="0.982" style="" />
    <rect x="6.108" y="8.632" width="0.995" height="0.982" style="" />
    <rect x="8.838" y="8.632" width="0.995" height="0.982" style="" />
    <rect x="11.569" y="8.632" width="0.995" height="0.982" style="" />
    <rect x="6.084" y="5.961" width="0.995" height="0.982" style="" />
    <rect x="8.815" y="5.961" width="0.995" height="0.982" style="" />
    <rect x="11.545" y="5.961" width="0.995" height="0.982" style="" />
  </symbol>

  <symbol id="check" viewBox="0 0 16 12">
    <path d="M15.508,0.529c-0.318,-0.341 -0.741,-0.529 -1.191,-0.529c-0.45,0 -0.872,0.188 -1.191,0.529l-6.624,7.109l-3.628,-3.892c-0.318,-0.341 -0.741,-0.53 -1.19,-0.53c-0.45,0 -0.873,0.189 -1.191,0.53c-0.318,0.341 -0.493,0.794 -0.493,1.277c0,0.483 0.175,0.936 0.493,1.278l4.817,5.169c0.319,0.342 0.742,0.53 1.192,0.53c0.449,0 0.872,-0.188 1.19,-0.53l7.816,-8.386c0.656,-0.705 0.656,-1.851 0,-2.555" style="fill-rule:nonzero;" />
  </symbol>

  <symbol id="facebook" viewBox="0 0 8 16">
    <path id="f" d="M5.193,16l0,-7.298l2.358,0l0.354,-2.845l-2.712,0l0,-1.816c0,-0.823 0.22,-1.384 1.357,-1.384l1.45,-0.001l0,-2.544c-0.251,-0.035 -1.112,-0.112 -2.113,-0.112c-2.091,0 -3.522,1.325 -3.522,3.76l0,2.097l-2.365,0l0,2.845l2.365,0l0,7.298l2.828,0Z" style="fill-rule:nonzero;" />
  </symbol>

  <symbol id="play" viewBox="0 0 46 54">
    <path d="M34.56,26.174l-21.997,-15c-0.309,-0.21 -0.704,-0.23 -1.032,-0.059c-0.326,0.171 -0.531,0.513 -0.531,0.884l0,30c0,0.371 0.205,0.712 0.531,0.883c0.148,0.079 0.308,0.118 0.464,0.118c0.201,0 0.396,-0.059 0.568,-0.176l21.997,-15c0.274,-0.185 0.44,-0.493 0.44,-0.825c0,-0.333 -0.166,-0.64 -0.44,-0.825Z" style="fill:none;stroke-width:2px;" />
  </symbol>
  
  <symbol id="play-two" viewBox="0 0 40 46">
    <path d="M28.67,22.38l-16.498,-11.25c-0.232,-0.157 -0.528,-0.172 -0.774,-0.044c-0.244,0.129 -0.398,0.385 -0.398,0.663l0,22.5c0,0.278 0.154,0.534 0.398,0.663c0.111,0.059 0.231,0.088 0.348,0.088c0.151,0 0.297,-0.044 0.426,-0.132l16.498,-11.25c0.205,-0.139 0.33,-0.37 0.33,-0.619c0,-0.249 -0.125,-0.48 -0.33,-0.619Z" style="fill:none;fill-rule:nonzero;stroke-width:2px;" />
  </symbol>

  <symbol id="arrow-square" viewBox="0 0 42 34">
    <path d="M8.145,23.193l0,9.807l32.855,0l0,-32l-32.855,0l0,9.807" style="fill:none;stroke-width:2px;" />
    <path d="M30.717,17l-29.717,0" style="fill:none;stroke-width:2px;" />
    <path d="M21.921,25.568l8.796,-8.568" style="fill:none;stroke-width:2px;" />
    <path d="M21.921,8.432l8.796,8.568" style="fill:none;stroke-width:2px;" />
  </symbol>

  <symbol id="tel" viewBox="0 0 28 28">
    <path d="M11.021,16.982c4.079,4.08 7.975,4.943 9.413,5.021c0.919,-1.346 1.308,-2.458 1.569,-3.451c-0.993,-0.968 -2.44,-1.956 -3.765,-2.511l-1.569,1.569c-0.536,-0.144 -2.007,-0.752 -3.766,-2.51c-1.758,-1.759 -2.366,-3.23 -2.51,-3.766l1.569,-1.569c-0.555,-1.325 -1.543,-2.772 -2.511,-3.765c-0.993,0.261 -2.105,0.65 -3.451,1.569c0.078,1.438 0.941,5.334 5.021,9.413Z" style="fill:none;stroke-width:1px;" />
  </symbol>

  <symbol id="mail-sm" viewBox="0 0 28 24">
    <path d="M22,17.226c0,0.427 -0.326,0.774 -0.727,0.774l-14.546,0c-0.401,0 -0.727,-0.347 -0.727,-0.774l0,-10.452c0,-0.427 0.326,-0.774 0.727,-0.774l14.546,0c0.401,0 0.727,0.347 0.727,0.774l0,10.452Z" style="fill:none;stroke-width:1px;" />
    <path d="M20.909,7.161l-5.109,5.439c-0.994,1.058 -2.606,1.058 -3.6,0l-4.745,-5.052" style="fill:none;stroke-width:1px;stroke-linecap:round;" />
    <path d="M7.455,16.452l3.272,-3.484" style="fill:none;stroke-width:1px;stroke-linecap:round;" />
    <path d="M20.545,16.452l-3.272,-3.484" style="fill:none;stroke-width:1px;stroke-linecap:round;" />
  </symbol>

  <symbol id="icon-doc" viewBox="0 0 36 44">
    <path d="M30,19.92l0,-7.825l-6,-6.095l-16.5,0c-0.828,0 -1.5,0.683 -1.5,1.524l0,28.952c0,0.841 0.672,1.524 1.5,1.524l21,0c0.828,0 1.5,-0.683 1.5,-1.524l0,-4.541" style="fill:none;stroke-width:1px;" />
    <path d="M27.75,12.857l-4.5,0l0,-4.571" style="fill:none;stroke-width:1px;" />
  </symbol>

  <symbol id="print" viewBox="0 0 16 14">
    <path d="M15.36,10c0,0.368 -0.287,0.667 -0.64,0.667l-1.6,0l0,-2c0,-0.368 -0.287,-0.667 -0.64,-0.667l-8.96,0c-0.353,0 -0.64,0.299 -0.64,0.667l0,2l-1.6,0c-0.353,0 -0.64,-0.299 -0.64,-0.667l0,-5.333c0,-0.368 0.287,-0.667 0.64,-0.667l13.44,0c0.353,0 0.64,0.299 0.64,0.667l0,5.333Zm-2.88,3c0,0.184 -0.143,0.333 -0.32,0.333l-8.32,0c-0.177,0 -0.32,-0.149 -0.32,-0.333l0,-4.333l8.96,0l0,4.333Zm-8.96,-12c0,-0.184 0.143,-0.333 0.32,-0.333l8.32,0c0.177,0 0.32,0.149 0.32,0.333l0,2.333l-8.96,0l0,-2.333Zm11.2,2.333l-1.6,0l0,-2.333c0,-0.551 -0.431,-1 -0.96,-1l-8.32,0c-0.529,0 -0.96,0.449 -0.96,1l0,2.333l-1.6,0c-0.706,0 -1.28,0.598 -1.28,1.334l0,5.333c0,0.735 0.574,1.333 1.28,1.333l1.6,0l0,1.667c0,0.551 0.431,1 0.96,1l8.32,0c0.529,0 0.96,-0.449 0.96,-1l0,-1.667l1.6,0c0.706,0 1.28,-0.598 1.28,-1.333l0,-5.333c0,-0.736 -0.574,-1.334 -1.28,-1.334" style="fill-rule:nonzero;" />
    <path d="M5.12,10.667l5.76,0c0.177,0 0.32,-0.149 0.32,-0.334c0,-0.184 -0.143,-0.333 -0.32,-0.333l-5.76,0c-0.177,0 -0.32,0.149 -0.32,0.333c0,0.185 0.143,0.334 0.32,0.334" style="fill-rule:nonzero;" />
    <path d="M5.12,12l4.16,0c0.177,0 0.32,-0.149 0.32,-0.333c0,-0.185 -0.143,-0.334 -0.32,-0.334l-4.16,0c-0.177,0 -0.32,0.149 -0.32,0.334c0,0.184 0.143,0.333 0.32,0.333" style="fill-rule:nonzero;" />
    <path d="M13.12,6c0,0.368 -0.287,0.667 -0.64,0.667c-0.353,0 -0.64,-0.299 -0.64,-0.667c0,-0.368 0.287,-0.667 0.64,-0.667c0.353,0 0.64,0.299 0.64,0.667" style="fill-rule:nonzero;" />
  </symbol>

  <symbol id="at" viewBox="0 -8 26 38">
    <path d="M17.696,17.29c-0.814,1.639 -1.891,2.636 -3.861,3.258c-3.444,1.085 -7.618,-2.139 -7.618,-6.516c0,-5.43 4.174,-7.602 7.305,-7.602c2.087,0 4.174,1.086 4.174,2.172" style="fill:none;stroke-width:1px;" />
    <path d="M18.739,6.43c-1.043,3.258 -0.977,7.623 -0.628,11.099c0.628,6.276 4.802,3.019 5.95,0.825c0.747,-1.427 0.939,-3.139 0.939,-4.865c0,-1.727 -0.334,-3.367 -0.939,-4.865c-0.616,-1.488 -1.492,-2.835 -2.578,-3.964c-1.085,-1.13 -2.379,-2.042 -3.808,-2.683c-1.44,-0.629 -3.016,-0.977 -4.675,-0.977c-1.659,0 -3.235,0.348 -4.675,0.977c-1.429,0.641 -2.723,1.553 -3.808,2.683c-1.086,1.129 -1.962,2.476 -2.578,3.964c-0.605,1.498 -0.939,3.138 -0.939,4.865c0,1.726 0.334,3.366 0.939,4.865c0.616,1.488 1.492,2.834 2.578,3.964c1.085,1.129 2.379,2.041 3.808,2.682" style="fill:none;stroke-width:1px;" />
  </symbol>

  <symbol id="people" viewBox="0 -8 26 38">
    <path d="M16.273,21.8c1.178,0 2.182,-1.096 2.182,-2.133l0,-4.8c0,-1.762 -3.56,-2.667 -5.455,-2.667c-1.895,0 -5.455,0.905 -5.455,2.667l0,4.8c0,1.037 1.004,2.133 2.182,2.133" style="fill:none;stroke-width:1px;" />
    <path d="M22.818,22.867c1.061,0 2.182,-0.563 2.182,-1.6l0,-4.8c0,-1.762 -3.204,-2.667 -4.909,-2.667c-0.169,0 -0.352,0.009 -0.546,0.027" style="fill:none;stroke-width:1px;" />
    <path d="M13,10.6c1.271,0 2.182,-0.784 2.182,-1.92l0,-0.96c0,-1.136 -0.911,-1.92 -2.182,-1.92c-1.271,0 -2.182,0.784 -2.182,1.92l0,0.96c0,1.136 0.911,1.92 2.182,1.92Z" style="fill:none;stroke-width:1px;" />
    <path d="M22.818,25l0,-7.467" style="fill:none;stroke-width:1px;" />
    <path d="M16.273,25l0,-9.067" style="fill:none;stroke-width:1px;" />
    <path d="M9.727,15.933l0,9.067" style="fill:none;stroke-width:1px;" />
    <path d="M20.636,12.2c1.272,0 2.182,-0.784 2.182,-1.92l0,-0.96c0,-1.136 -0.91,-1.92 -2.182,-1.92c-1.271,0 -2.181,0.784 -2.181,1.92l0,0.96c0,1.136 0.91,1.92 2.181,1.92Z" style="fill:none;stroke-width:1px;" />
    <path d="M3.182,22.867c-1.061,0 -2.182,-0.563 -2.182,-1.6l0,-4.8c0,-1.762 3.204,-2.667 4.909,-2.667c0.169,0 0.352,0.009 0.546,0.027" style="fill:none;stroke-width:1px;" />
    <path d="M3.182,25l0,-7.467" style="fill:none;stroke-width:1px;" />
    <path d="M5.364,12.2c-1.272,0 -2.182,-0.784 -2.182,-1.92l0,-0.96c0,-1.136 0.91,-1.92 2.182,-1.92c1.271,0 2.181,0.784 2.181,1.92l0,0.96c0,1.136 -0.91,1.92 -2.181,1.92Z" style="fill:none;stroke-width:1px;" />
    <path d="M8.091,5.8c-1.272,0 -2.182,-0.784 -2.182,-1.92l0,-0.96c0,-1.136 0.91,-1.92 2.182,-1.92c1.271,0 2.182,0.784 2.182,1.92l0,0.96c0,1.136 -0.911,1.92 -2.182,1.92Z" style="fill:none;stroke-width:1px;" />
    <path d="M17.909,5.8c-1.271,0 -2.182,-0.784 -2.182,-1.92l0,-0.96c0,-1.136 0.911,-1.92 2.182,-1.92c1.272,0 2.182,0.784 2.182,1.92l0,0.96c0,1.136 -0.91,1.92 -2.182,1.92Z" style="fill:none;stroke-width:1px;" />
  </symbol>

  <symbol id="download" viewBox="0 0 16 16">
    <path d="M11.546,8.095l2.96,0c0.176,0 0.328,-0.088 0.403,-0.236c0.075,-0.147 0.053,-0.311 -0.06,-0.437l-6.506,-7.273c-0.087,-0.098 -0.206,-0.149 -0.343,-0.149c-0.137,0 -0.256,0.051 -0.343,0.149l-6.506,7.273c-0.113,0.126 -0.135,0.29 -0.06,0.437c0.075,0.148 0.226,0.236 0.403,0.236l2.96,0l0,4.473c0,0.201 0.178,0.365 0.395,0.365l6.302,0c0.217,0 0.395,-0.164 0.395,-0.365l0,-4.473Z" style="fill:#ffd24c;" />
    <path d="M0.474,14.255l15.052,0c0.261,0 0.474,0.197 0.474,0.438l0,0.869c0,0.241 -0.213,0.438 -0.474,0.438l-15.052,0c-0.261,0 -0.474,-0.197 -0.474,-0.438l0,-0.869c0,-0.241 0.213,-0.438 0.474,-0.438" style="fill:#ffd24c;" />
  </symbol>

  <symbol id="sm-arrow-down" viewBox="0 0 10 6">
    <path d="M9.354,1.354l-4.354,4.353l-4.354,-4.353l0.708,-0.708l3.646,3.647l3.646,-3.647l0.708,0.708Z" style="" />
  </symbol>

  <symbol id="geo" viewBox="0 0 14 18">
    <path d="M7,17.038c1.508,-4.831 6,-5.833 6,-10.264c0,-3.107 -2.871,-5.774 -6,-5.774c-3.129,0 -6,2.667 -6,5.774c0,4.431 4.492,5.433 6,10.264" style="fill:none;stroke-width:1px;" />
    <ellipse cx="7" cy="6.766" rx="1.933" ry="1.917" style="fill:none;stroke-width:1px;" />
  </symbol>
  
  <symbol id="planet" viewBox="0 0 18 18">
    <path d="M9,1l0,16" style="fill:none;stroke:#bababd;stroke-width:1px;" />
    <path d="M9,1c4.418,0 8,3.613 8,8.02c0,4.407 -3.582,7.98 -8,7.98c-4.418,0 -8,-3.573 -8,-7.98c0,-4.407 3.582,-8.02 8,-8.02Z" style="fill:none;stroke-width:1px;" />
    <path d="M9,1c2.518,0 4.56,3.613 4.56,8.02c0,4.407 -2.041,7.98 -4.56,7.98c-2.518,0 -4.56,-3.573 -4.56,-7.98c0,-4.407 2.042,-8.02 4.56,-8.02Z" style="fill:none;stroke-width:1px;" />
    <path d="M1.78,5.952l14.44,0" style="fill:none;stroke-width:1px;" />
    <path d="M1.4,12.048l15.2,0" style="fill:none;stroke-width:1px;" />
  </symbol>

</svg>
