<svg width="100%" height="100%" viewBox="0 0 48 44" version="1.1" xmlns="http://www.w3.org/2000/svg" xmlns:xlink="http://www.w3.org/1999/xlink" xml:space="preserve" xmlns:serif="http://www.serif.com/" style="fill-rule:evenodd;clip-rule:evenodd;stroke-miterlimit:10;">
  <g id="icons">
    <path d="M16.341,15.249c-3.323,1.077 -6.352,2.738 -8.503,4.589c2.672,9.623 8.121,15.215 15.758,16.114c0.893,-0.868 1.513,-1.781 1.882,-2.83" style="fill:none;stroke:#fff;stroke-width:1.5px;" />
    <path d="M13.544,26.239c0.232,0.669 1.46,0.803 2.595,0.421c1.134,-0.383 1.853,-1.192 1.884,-1.55" style="fill:none;stroke:#fff;stroke-width:1.5px;" />
    <path d="M29.095,33.123c7.453,-3.54 11.49,-9.385 10.628,-23.073c-2.947,-1.189 -6.775,-2.062 -10.628,-2.098c-3.853,0.036 -7.681,0.909 -10.628,2.098c-0.861,13.688 3.175,19.533 10.628,23.073Z" style="fill:none;stroke:#fff;stroke-width:1.5px;" />
    <path d="M34.055,24.033c-1.412,0.516 -3.398,0.667 -4.96,0.7c-1.562,-0.033 -3.548,-0.184 -4.96,-0.7c-0.471,-0.172 1.928,4.195 4.96,4.195c3.032,0 5.43,-4.367 4.96,-4.195Z" style="fill:none;stroke:#fff;stroke-width:1.5px;" />
    <path d="M30.512,19.139c0,-1.019 1.063,-2.097 2.834,-2.097c1.772,0 3.543,1.26 3.543,2.097" style="fill:none;stroke:#fff;stroke-width:1.5px;" />
    <path d="M21.301,19.139c0,-0.837 1.771,-2.097 3.543,-2.097c1.771,0 2.834,1.078 2.834,2.097" style="fill:none;stroke:#fff;stroke-width:1.5px;" />
  </g>
</svg>
