<svg width="100%" height="100%" viewBox="0 0 16 13" version="1.1" xmlns="http://www.w3.org/2000/svg" xmlns:xlink="http://www.w3.org/1999/xlink" xml:space="preserve" xmlns:serif="http://www.serif.com/" style="fill-rule:evenodd;clip-rule:evenodd;stroke-linejoin:round;stroke-miterlimit:1.41421;">
  <path d="M16,1.539c-0.589,0.261 -1.221,0.437 -1.885,0.517c0.677,-0.407 1.198,-1.05 1.443,-1.816c-0.634,0.376 -1.337,0.649 -2.084,0.796c-0.599,-0.638 -1.452,-1.036 -2.397,-1.036c-1.812,0 -3.282,1.469 -3.282,3.282c0,0.257 0.029,0.508 0.085,0.748c-2.728,-0.137 -5.147,-1.444 -6.766,-3.429c-0.283,0.484 -0.445,1.048 -0.445,1.65c0,1.138 0.58,2.143 1.461,2.731c-0.538,-0.017 -1.044,-0.164 -1.487,-0.41c0,0.013 0,0.027 0,0.041c0,1.59 1.131,2.917 2.633,3.218c-0.276,0.075 -0.566,0.115 -0.865,0.115c-0.211,0 -0.417,-0.02 -0.618,-0.059c0.418,1.304 1.63,2.253 3.067,2.279c-1.124,0.881 -2.539,1.405 -4.077,1.405c-0.265,0 -0.526,-0.015 -0.783,-0.046c1.453,0.932 3.178,1.475 5.032,1.475c6.038,0 9.34,-5.001 9.34,-9.338c0,-0.142 -0.004,-0.283 -0.01,-0.424c0.641,-0.463 1.198,-1.041 1.638,-1.699" style="fill-rule:nonzero;" />
</svg>
