<svg width="100%" height="100%" viewBox="0 0 16 12" version="1.1" xmlns="http://www.w3.org/2000/svg" xmlns:xlink="http://www.w3.org/1999/xlink" xml:space="preserve" xmlns:serif="http://www.serif.com/" style="fill-rule:evenodd;clip-rule:evenodd;stroke-linejoin:round;stroke-miterlimit:1.41421;">
  <g id="Var1">
    <path d="M6.322,8.347l0,-4.774l4.23,2.387l-4.23,2.387Zm9.401,-6.417c-0.196,-0.915 -0.892,-1.591 -1.73,-1.692c-1.983,-0.238 -3.992,-0.239 -5.991,-0.238c-1.999,-0.001 -4.007,0 -5.991,0.238c-0.838,0.101 -1.534,0.777 -1.729,1.692c-0.279,1.304 -0.282,2.727 -0.282,4.07c0,1.343 0,2.766 0.278,4.07c0.196,0.915 0.892,1.591 1.73,1.692c1.983,0.238 3.992,0.239 5.991,0.238c1.999,0.001 4.007,0 5.991,-0.239c0.838,-0.1 1.534,-0.776 1.73,-1.691c0.278,-1.304 0.28,-2.727 0.28,-4.07c0,-1.343 0.001,-2.766 -0.277,-4.07" style="fill:#ffd24c;fill-rule:nonzero;" />
  </g>
</svg>
