<svg width="100%" height="100%" viewBox="0 0 34 32" version="1.1" xmlns="http://www.w3.org/2000/svg" xmlns:xlink="http://www.w3.org/1999/xlink" xml:space="preserve" xmlns:serif="http://www.serif.com/" style="fill-rule:evenodd;clip-rule:evenodd;stroke-linejoin:round;stroke-miterlimit:10;">
  <g id="icons">
    <path d="M9.667,31.014l0,-18.92l14.666,0l0,18.92" style="fill:none;stroke:#fff;stroke-width:1.5px;" />
    <path d="M11.667,12.094l0,-3.379l10.666,0l0,3.379" style="fill:none;stroke:#fff;stroke-width:1.5px;" />
    <path d="M15,31.014l0,-3.379l4,0l0,3.379" style="fill:none;stroke:#fff;stroke-width:1.5px;" />
    <path d="M13,18.851l0,-2.703l2.667,0l0,2.703" style="fill:none;stroke:#fff;stroke-width:1.5px;" />
    <path d="M13,24.256l0,-2.702l2.667,0l0,2.702" style="fill:none;stroke:#fff;stroke-width:1.5px;" />
    <path d="M18.333,18.851l0,-2.703l2.667,0l0,2.703" style="fill:none;stroke:#fff;stroke-width:1.5px;" />
    <path d="M18.333,24.256l0,-2.702l2.667,0l0,2.702" style="fill:none;stroke:#fff;stroke-width:1.5px;" />
    <path d="M1,31.014l32,0" style="fill:none;stroke:#fff;stroke-width:1.5px;" />
    <path d="M24.333,4.661l-4.6,0c-0.342,-0.676 -1.144,-1.372 -2.08,-1.372c-0.296,0 -0.58,0.071 -0.839,0.177c-0.521,-1.409 -1.858,-2.466 -3.43,-2.466c-2.023,0 -3.662,2.31 -3.666,3.661l-5.385,0" style="fill:none;stroke:#fff;stroke-width:1.5px;" />
    <path d="M6.333,8.715l-4.666,0" style="fill:none;stroke:#fff;stroke-width:1.5px;" />
    <path d="M7.667,8.715l1.333,0" style="fill:none;stroke:#fff;stroke-width:1.5px;" />
    <path d="M25.667,4.661l1.333,0" style="fill:none;stroke:#fff;stroke-width:1.5px;" />
    <path d="M28.333,4.661l1.334,0" style="fill:none;stroke:#fff;stroke-width:1.5px;" />
    <path d="M26.333,22.229l2,0" style="fill:none;stroke:#fff;stroke-width:1.5px;" />
    <path d="M26.333,24.932l2,0" style="fill:none;stroke:#fff;stroke-width:1.5px;" />
    <path d="M26.333,27.635l2,0" style="fill:none;stroke:#fff;stroke-width:1.5px;" />
    <path d="M30.333,31.014l0,-11.487l-6,0" style="fill:none;stroke:#fff;stroke-width:1.5px;" />
    <path d="M28.333,19.527l0,-3.379l-4,0" style="fill:none;stroke:#fff;stroke-width:1.5px;" />
    <path d="M7.667,22.229l-2,0" style="fill:none;stroke:#fff;stroke-width:1.5px;" />
    <path d="M7.667,24.932l-2,0" style="fill:none;stroke:#fff;stroke-width:1.5px;" />
    <path d="M7.667,27.635l-2,0" style="fill:none;stroke:#fff;stroke-width:1.5px;" />
    <path d="M3.667,31.014l0,-11.487l6,0" style="fill:none;stroke:#fff;stroke-width:1.5px;" />
    <path d="M5.667,19.527l0,-3.379l4,0" style="fill:none;stroke:#fff;stroke-width:1.5px;" />
  </g>
</svg>
