<svg width="100%" height="100%" viewBox="0 0 16 16" version="1.1" xmlns="http://www.w3.org/2000/svg" xmlns:xlink="http://www.w3.org/1999/xlink" xml:space="preserve" xmlns:serif="http://www.serif.com/" style="fill-rule:evenodd;clip-rule:evenodd;stroke-linejoin:round;stroke-miterlimit:1.41421;">
  <g id="Layer-1" serif:id="Layer 1">
    <path d="M11.546,8.095l2.96,0c0.176,0 0.328,-0.088 0.403,-0.236c0.075,-0.147 0.053,-0.311 -0.06,-0.437l-6.506,-7.273c-0.087,-0.098 -0.206,-0.149 -0.343,-0.149c-0.137,0 -0.256,0.051 -0.343,0.149l-6.506,7.273c-0.113,0.126 -0.135,0.29 -0.06,0.437c0.075,0.148 0.226,0.236 0.403,0.236l2.96,0l0,4.473c0,0.201 0.178,0.365 0.395,0.365l6.302,0c0.217,0 0.395,-0.164 0.395,-0.365l0,-4.473Z" style="fill:#ffd24c;" />
    <path d="M0.474,14.255l15.052,0c0.261,0 0.474,0.197 0.474,0.438l0,0.869c0,0.241 -0.213,0.438 -0.474,0.438l-15.052,0c-0.261,0 -0.474,-0.197 -0.474,-0.438l0,-0.869c0,-0.241 0.213,-0.438 0.474,-0.438" style="fill:#ffd24c;" />
  </g>
</svg>
