<svg width="100%" height="100%" viewBox="0 0 34 32" version="1.1" xmlns="http://www.w3.org/2000/svg" xmlns:xlink="http://www.w3.org/1999/xlink" xml:space="preserve" xmlns:serif="http://www.serif.com/" style="fill-rule:evenodd;clip-rule:evenodd;stroke-linejoin:round;stroke-miterlimit:10;">
  <g id="icons">
    <path d="M33,11.909c0,-0.819 -0.376,-1.546 -0.959,-2.045c0.583,-0.5 0.959,-1.226 0.959,-2.046c0,-1.506 -1.246,-2.727 -2.783,-2.727c-0.836,0 -1.577,0.369 -2.087,0.94c-0.509,-0.571 -1.25,-0.94 -2.087,-0.94c-1,0 -1.865,0.583 -2.352,1.364l-13.382,0c-0.487,-0.781 -1.352,-1.364 -2.352,-1.364c-0.837,0 -1.578,0.369 -2.087,0.94c-0.51,-0.571 -1.251,-0.94 -2.087,-0.94c-1.537,0 -2.783,1.221 -2.783,2.727c0,0.82 0.376,1.546 0.959,2.046c-0.583,0.499 -0.959,1.226 -0.959,2.045c0,1.006 0.563,1.872 1.391,2.343l0,7.587c-0.828,0.471 -1.391,1.336 -1.391,2.343c0,0.819 0.376,1.546 0.959,2.045c-0.583,0.5 -0.959,1.226 -0.959,2.046c0,1.506 1.246,2.727 2.783,2.727c0.836,0 1.577,-0.369 2.087,-0.94c0.509,0.571 1.25,0.94 2.087,0.94c1,0 1.865,-0.583 2.352,-1.364l13.382,0c0.487,0.781 1.352,1.364 2.352,1.364c0.837,0 1.578,-0.369 2.087,-0.94c0.51,0.571 1.251,0.94 2.087,0.94c1.537,0 2.783,-1.221 2.783,-2.727c0,-0.82 -0.376,-1.546 -0.959,-2.046c0.583,-0.499 0.959,-1.226 0.959,-2.045c0,-1.007 -0.563,-1.872 -1.391,-2.343l0,-7.587c0.828,-0.471 1.391,-1.337 1.391,-2.343Z" style="fill:none;stroke:#fff;stroke-width:1.5px;" />
    <rect x="5.174" y="9.182" width="23.652" height="17.727" style="fill:none;stroke:#fff;stroke-width:1.5px;" />
    <path d="M14.217,4.409l3.479,-3.409l3.478,3.409" style="fill:none;stroke:#fff;stroke-width:1.5px;" />
    <path d="M26.043,13.955c0,-1.129 -0.935,-2.046 -2.086,-2.046c-1.152,0 -2.087,0.917 -2.087,2.046c0,1.128 0.935,2.045 2.087,2.045c1.151,0 2.086,-0.917 2.086,-2.045Z" style="fill:none;stroke:#fff;stroke-width:1.5px;" />
    <path d="M21.174,23.5l-7.652,-7.5l-8.348,8.864l0,2.045l23.652,0l0,-1.364l-7.652,-6.818l-2.087,2.046" style="fill:none;stroke:#fff;stroke-width:1.5px;" />
  </g>
</svg>
