<svg width="100%" height="100%" viewBox="0 0 28 34" version="1.1" xmlns="http://www.w3.org/2000/svg" xmlns:xlink="http://www.w3.org/1999/xlink" xml:space="preserve" xmlns:serif="http://www.serif.com/" style="fill-rule:evenodd;clip-rule:evenodd;stroke-linejoin:round;stroke-miterlimit:10;">
  <g id="icons">
    <path d="M14.008,1c-1.265,1.825 -9.698,5.567 -13.008,5.567l0,13.221c0,6.215 12.278,13.016 13,13.212c0.723,-0.196 13,-7.471 13,-12.516l0,-13.917c-3.611,0 -11.729,-3.742 -12.992,-5.567Z" style="fill:none;stroke:#fff;stroke-width:1.5px;" />
    <path d="M21.551,24.16c1.547,-1.485 2.712,-3.065 2.712,-4.434l0,-10.89c-2.851,0 -9.259,-2.928 -10.257,-4.357c-0.403,0.577 -1.731,1.399 -3.341,2.174" style="fill:none;stroke:#fff;stroke-width:1.5px;" />
    <path d="M7.807,7.858c-1.583,0.577 -3.103,0.977 -4.07,0.977l0,10.347c0,4.864 9.693,10.195 10.263,10.348c0.259,-0.07 2.393,-1.288 4.649,-2.956" style="fill:none;stroke:#fff;stroke-width:1.5px;" />
    <path d="M15.369,15.613l0,-2.784l-2.737,0l0,2.784l-2.737,0l0,2.783l2.737,0l0,2.784l2.737,0l0,-2.784l2.736,0l0,-2.783l-2.736,0Z" style="fill:none;stroke:#fff;stroke-width:1.5px;stroke-linejoin:miter;" />
  </g>
</svg>
