<svg width="100%" height="100%" viewBox="0 0 16 16" version="1.1" xmlns="http://www.w3.org/2000/svg" xmlns:xlink="http://www.w3.org/1999/xlink" xml:space="preserve" xmlns:serif="http://www.serif.com/" style="fill-rule:evenodd;clip-rule:evenodd;stroke-linejoin:round;stroke-miterlimit:1.41421;">
  <g id="Var1">
    <path d="M8,13.995c-2.046,0 -2.288,-0.008 -3.093,-0.045c-0.705,-0.032 -1.081,-0.147 -1.33,-0.244c-0.32,-0.124 -0.538,-0.266 -0.778,-0.505c-0.239,-0.24 -0.381,-0.458 -0.505,-0.778c-0.097,-0.249 -0.212,-0.625 -0.244,-1.33c-0.037,-0.806 -0.045,-1.048 -0.045,-3.093c0,-2.046 0.008,-2.287 0.045,-3.093c0.032,-0.705 0.147,-1.081 0.244,-1.33c0.124,-0.32 0.266,-0.538 0.505,-0.778c0.24,-0.239 0.458,-0.381 0.778,-0.505c0.249,-0.097 0.625,-0.212 1.33,-0.244c0.803,-0.037 1.045,-0.045 3.093,-0.045c2.048,0 2.29,0.008 3.093,0.045c0.705,0.032 1.081,0.147 1.33,0.244c0.32,0.124 0.538,0.266 0.778,0.505c0.239,0.24 0.381,0.458 0.505,0.778c0.097,0.249 0.212,0.625 0.244,1.329c0.037,0.806 0.045,1.048 0.045,3.094c0,2.046 -0.008,2.288 -0.045,3.093c-0.032,0.705 -0.147,1.081 -0.244,1.33c-0.124,0.32 -0.266,0.538 -0.505,0.778c-0.24,0.239 -0.458,0.381 -0.778,0.505c-0.249,0.097 -0.625,0.212 -1.33,0.244c-0.805,0.037 -1.047,0.045 -3.093,0.045m7.953,-9.18c-0.035,-0.777 -0.152,-1.383 -0.378,-1.965c-0.225,-0.579 -0.52,-1.032 -0.957,-1.468c-0.436,-0.437 -0.889,-0.732 -1.468,-0.957c-0.582,-0.226 -1.188,-0.343 -1.965,-0.378c-0.827,-0.038 -1.101,-0.047 -3.185,-0.047c-2.084,0 -2.358,0.009 -3.185,0.047c-0.777,0.035 -1.383,0.152 -1.965,0.378c-0.579,0.225 -1.032,0.52 -1.468,0.956c-0.437,0.437 -0.732,0.89 -0.957,1.469c-0.226,0.582 -0.343,1.188 -0.378,1.965c-0.038,0.827 -0.047,1.101 -0.047,3.185c0,2.084 0.009,2.358 0.047,3.185c0.035,0.777 0.152,1.383 0.378,1.965c0.225,0.579 0.52,1.032 0.957,1.468c0.436,0.437 0.889,0.732 1.468,0.957c0.582,0.226 1.188,0.343 1.965,0.378c0.827,0.038 1.101,0.047 3.185,0.047c2.084,0 2.358,-0.009 3.185,-0.047c0.777,-0.035 1.383,-0.152 1.965,-0.378c0.579,-0.225 1.032,-0.52 1.468,-0.957c0.437,-0.436 0.732,-0.889 0.957,-1.468c0.226,-0.582 0.343,-1.188 0.378,-1.965c0.038,-0.827 0.047,-1.101 0.047,-3.185c0,-2.084 -0.009,-2.358 -0.047,-3.185" style="fill-rule:nonzero;" />
    <path d="M8,10.254c-1.243,0 -2.254,-1.011 -2.254,-2.254c0,-1.243 1.011,-2.254 2.254,-2.254c1.243,0 2.254,1.011 2.254,2.254c0,1.243 -1.011,2.254 -2.254,2.254m0,-6.513c-2.348,0 -4.259,1.911 -4.259,4.259c0,2.348 1.911,4.259 4.259,4.259c2.348,0 4.259,-1.911 4.259,-4.259c0,-2.348 -1.911,-4.259 -4.259,-4.259" style="fill:#ffd24c;fill-rule:nonzero;" />
    <path d="M12.105,5.127c0.68,0 1.233,-0.552 1.233,-1.232c0,-0.68 -0.553,-1.233 -1.233,-1.233c-0.68,0 -1.233,0.553 -1.233,1.233c0,0.68 0.553,1.232 1.233,1.232" style="fill-rule:nonzero;" />
  </g>
</svg>
