<svg width="100%" height="100%" viewBox="0 0 68 54" version="1.1" xmlns="http://www.w3.org/2000/svg" xmlns:xlink="http://www.w3.org/1999/xlink" xml:space="preserve" xmlns:serif="http://www.serif.com/" style="fill-rule:evenodd;clip-rule:evenodd;stroke-miterlimit:10;">
  <g id="icons" opacity="0.5">
    <path d="M52,13l-36,0" style="fill:none;stroke:#202432;stroke-width:2px;" />
    <path d="M16,28.04l36,-0.04" style="fill:none;stroke:#202432;stroke-width:2px;" />
    <rect x="52" y="11" width="5" height="19" style="fill:none;stroke:#202432;stroke-width:2px;" />
    <rect x="11" y="11" width="5" height="19" style="fill:none;stroke:#202432;stroke-width:2px;" />
    <path d="M34,28l0,-2l-2,-3.059l2,-2.941l5,-2.16" style="fill:none;stroke:#202432;stroke-width:2px;" />
    <path d="M31,17l3,3" style="fill:none;stroke:#202432;stroke-width:2px;" />
    <path d="M30,22.093l2,0.849" style="fill:none;stroke:#202432;stroke-width:2px;" />
    <path d="M38,31c-0.444,2.288 -3,3.735 -3,6.107c0,1.605 1.298,2.893 3,2.893c1.702,0 3,-1.288 3,-2.893c0,-2.372 -2.556,-3.819 -3,-6.107Z" style="fill:none;stroke:#202432;stroke-width:2px;stroke-linejoin:round;" />
    <path d="M30,37c-0.444,2.288 -3,3.735 -3,6.107c0,1.605 1.298,2.893 3,2.893c1.702,0 3,-1.288 3,-2.893c0,-2.372 -2.556,-3.819 -3,-6.107Z" style="fill:none;stroke:#202432;stroke-width:2px;stroke-linejoin:round;" />
    <path d="M35,44.032c6.196,0.267 11,2.165 11,4.468c0,2.485 -5.597,4.5 -12.5,4.5c-6.903,0 -12.5,-2.015 -12.5,-4.5c0,-1.304 1.54,-2.478 4,-3.3" style="fill:none;stroke:#202432;stroke-width:2px;stroke-linejoin:round;" />
  </g>
</svg>
