<svg width="100%" height="100%" viewBox="0 0 10 16" version="1.1" xmlns="http://www.w3.org/2000/svg" xmlns:xlink="http://www.w3.org/1999/xlink" xml:space="preserve" xmlns:serif="http://www.serif.com/" style="fill-rule:evenodd;clip-rule:evenodd;stroke-linejoin:round;stroke-miterlimit:1.41421;">
  <g id="Var1">
    <path d="M5.491,2.42c0.917,0 1.664,0.767 1.664,1.71c0,0.942 -0.747,1.709 -1.664,1.709c-0.917,0 -1.664,-0.767 -1.664,-1.709c0,-0.943 0.747,-1.71 1.664,-1.71m0,5.838c2.216,0 4.018,-1.852 4.018,-4.128c0,-2.278 -1.802,-4.13 -4.018,-4.13c-2.216,0 -4.018,1.852 -4.018,4.13c0,2.276 1.802,4.128 4.018,4.128" style="fill:#ffd24c;fill-rule:nonzero;" />
    <path d="M7.117,11.626c0.818,-0.191 1.606,-0.524 2.333,-0.993c0.55,-0.356 0.715,-1.103 0.369,-1.668c-0.346,-0.566 -1.073,-0.736 -1.623,-0.38c-1.646,1.063 -3.765,1.063 -5.41,0c-0.551,-0.356 -1.277,-0.186 -1.623,0.38c-0.346,0.566 -0.181,1.312 0.369,1.668c0.726,0.469 1.515,0.802 2.333,0.993l-2.246,2.309c-0.46,0.472 -0.46,1.238 0,1.711c0.23,0.236 0.531,0.354 0.832,0.354c0.301,0 0.603,-0.118 0.833,-0.354l2.206,-2.269l2.209,2.269c0.459,0.472 1.204,0.472 1.664,0c0.46,-0.473 0.46,-1.239 0,-1.711l-2.246,-2.309Z" style="fill:#ffd24c;fill-rule:nonzero;" />
  </g>
</svg>
