<svg width="100%" height="100%" viewBox="0 0 26 26" version="1.1" xmlns="http://www.w3.org/2000/svg" xmlns:xlink="http://www.w3.org/1999/xlink" xml:space="preserve" xmlns:serif="http://www.serif.com/" style="fill-rule:evenodd;clip-rule:evenodd;stroke-linejoin:round;stroke-miterlimit:10;">
  <g id="icons">
    <path d="M16.273,21.8c1.178,0 2.182,-1.096 2.182,-2.133l0,-4.8c0,-1.762 -3.56,-2.667 -5.455,-2.667c-1.895,0 -5.455,0.905 -5.455,2.667l0,4.8c0,1.037 1.004,2.133 2.182,2.133" style="fill:none;stroke:#bababd;stroke-width:1px;" />
    <path d="M22.818,22.867c1.061,0 2.182,-0.563 2.182,-1.6l0,-4.8c0,-1.762 -3.204,-2.667 -4.909,-2.667c-0.169,0 -0.352,0.009 -0.546,0.027" style="fill:none;stroke:#bababd;stroke-width:1px;" />
    <path d="M13,10.6c1.271,0 2.182,-0.784 2.182,-1.92l0,-0.96c0,-1.136 -0.911,-1.92 -2.182,-1.92c-1.271,0 -2.182,0.784 -2.182,1.92l0,0.96c0,1.136 0.911,1.92 2.182,1.92Z" style="fill:none;stroke:#bababd;stroke-width:1px;" />
    <path d="M22.818,25l0,-7.467" style="fill:none;stroke:#bababd;stroke-width:1px;" />
    <path d="M16.273,25l0,-9.067" style="fill:none;stroke:#bababd;stroke-width:1px;" />
    <path d="M9.727,15.933l0,9.067" style="fill:none;stroke:#bababd;stroke-width:1px;" />
    <path d="M20.636,12.2c1.272,0 2.182,-0.784 2.182,-1.92l0,-0.96c0,-1.136 -0.91,-1.92 -2.182,-1.92c-1.271,0 -2.181,0.784 -2.181,1.92l0,0.96c0,1.136 0.91,1.92 2.181,1.92Z" style="fill:none;stroke:#bababd;stroke-width:1px;" />
    <path d="M3.182,22.867c-1.061,0 -2.182,-0.563 -2.182,-1.6l0,-4.8c0,-1.762 3.204,-2.667 4.909,-2.667c0.169,0 0.352,0.009 0.546,0.027" style="fill:none;stroke:#bababd;stroke-width:1px;" />
    <path d="M3.182,25l0,-7.467" style="fill:none;stroke:#bababd;stroke-width:1px;" />
    <path d="M5.364,12.2c-1.272,0 -2.182,-0.784 -2.182,-1.92l0,-0.96c0,-1.136 0.91,-1.92 2.182,-1.92c1.271,0 2.181,0.784 2.181,1.92l0,0.96c0,1.136 -0.91,1.92 -2.181,1.92Z" style="fill:none;stroke:#bababd;stroke-width:1px;" />
    <path d="M8.091,5.8c-1.272,0 -2.182,-0.784 -2.182,-1.92l0,-0.96c0,-1.136 0.91,-1.92 2.182,-1.92c1.271,0 2.182,0.784 2.182,1.92l0,0.96c0,1.136 -0.911,1.92 -2.182,1.92Z" style="fill:none;stroke:#bababd;stroke-width:1px;" />
    <path d="M17.909,5.8c-1.271,0 -2.182,-0.784 -2.182,-1.92l0,-0.96c0,-1.136 0.911,-1.92 2.182,-1.92c1.272,0 2.182,0.784 2.182,1.92l0,0.96c0,1.136 -0.91,1.92 -2.182,1.92Z" style="fill:none;stroke:#bababd;stroke-width:1px;" />
  </g>
</svg>
