<svg width="100%" height="100%" viewBox="0 0 18 18" version="1.1" xmlns="http://www.w3.org/2000/svg" xmlns:xlink="http://www.w3.org/1999/xlink" xml:space="preserve" xmlns:serif="http://www.serif.com/" style="fill-rule:evenodd;clip-rule:evenodd;stroke-linejoin:round;stroke-miterlimit:10;">
  <g id="icons">
    <path d="M9,1l0,16" style="fill:none;stroke:#bababd;stroke-width:1px;" />
    <path d="M9,1c4.418,0 8,3.613 8,8.02c0,4.407 -3.582,7.98 -8,7.98c-4.418,0 -8,-3.573 -8,-7.98c0,-4.407 3.582,-8.02 8,-8.02Z" style="fill:none;stroke:#bababd;stroke-width:1px;" />
    <path d="M9,1c2.518,0 4.56,3.613 4.56,8.02c0,4.407 -2.041,7.98 -4.56,7.98c-2.518,0 -4.56,-3.573 -4.56,-7.98c0,-4.407 2.042,-8.02 4.56,-8.02Z" style="fill:none;stroke:#bababd;stroke-width:1px;" />
    <path d="M1.78,5.952l14.44,0" style="fill:none;stroke:#bababd;stroke-width:1px;" />
    <path d="M1.4,12.048l15.2,0" style="fill:none;stroke:#bababd;stroke-width:1px;" />
  </g>
</svg>
