<svg width="100%" height="100%" viewBox="0 0 16 14" version="1.1" xmlns="http://www.w3.org/2000/svg" xmlns:xlink="http://www.w3.org/1999/xlink" xml:space="preserve" xmlns:serif="http://www.serif.com/" style="fill-rule:evenodd;clip-rule:evenodd;stroke-linejoin:round;stroke-miterlimit:1.41421;">
  <g id="Icon">
    <path d="M15.36,10c0,0.368 -0.287,0.667 -0.64,0.667l-1.6,0l0,-2c0,-0.368 -0.287,-0.667 -0.64,-0.667l-8.96,0c-0.353,0 -0.64,0.299 -0.64,0.667l0,2l-1.6,0c-0.353,0 -0.64,-0.299 -0.64,-0.667l0,-5.333c0,-0.368 0.287,-0.667 0.64,-0.667l13.44,0c0.353,0 0.64,0.299 0.64,0.667l0,5.333Zm-2.88,3c0,0.184 -0.143,0.333 -0.32,0.333l-8.32,0c-0.177,0 -0.32,-0.149 -0.32,-0.333l0,-4.333l8.96,0l0,4.333Zm-8.96,-12c0,-0.184 0.143,-0.333 0.32,-0.333l8.32,0c0.177,0 0.32,0.149 0.32,0.333l0,2.333l-8.96,0l0,-2.333Zm11.2,2.333l-1.6,0l0,-2.333c0,-0.551 -0.431,-1 -0.96,-1l-8.32,0c-0.529,0 -0.96,0.449 -0.96,1l0,2.333l-1.6,0c-0.706,0 -1.28,0.598 -1.28,1.334l0,5.333c0,0.735 0.574,1.333 1.28,1.333l1.6,0l0,1.667c0,0.551 0.431,1 0.96,1l8.32,0c0.529,0 0.96,-0.449 0.96,-1l0,-1.667l1.6,0c0.706,0 1.28,-0.598 1.28,-1.333l0,-5.333c0,-0.736 -0.574,-1.334 -1.28,-1.334" style="fill:#202432;fill-rule:nonzero;" />
    <path d="M5.12,10.667l5.76,0c0.177,0 0.32,-0.149 0.32,-0.334c0,-0.184 -0.143,-0.333 -0.32,-0.333l-5.76,0c-0.177,0 -0.32,0.149 -0.32,0.333c0,0.185 0.143,0.334 0.32,0.334" style="fill:#202432;fill-rule:nonzero;" />
    <path d="M5.12,12l4.16,0c0.177,0 0.32,-0.149 0.32,-0.333c0,-0.185 -0.143,-0.334 -0.32,-0.334l-4.16,0c-0.177,0 -0.32,0.149 -0.32,0.334c0,0.184 0.143,0.333 0.32,0.333" style="fill:#202432;fill-rule:nonzero;" />
    <path d="M13.12,6c0,0.368 -0.287,0.667 -0.64,0.667c-0.353,0 -0.64,-0.299 -0.64,-0.667c0,-0.368 0.287,-0.667 0.64,-0.667c0.353,0 0.64,0.299 0.64,0.667" style="fill:#202432;fill-rule:nonzero;" />
  </g>
</svg>
