<svg width="100%" height="100%" viewBox="0 0 46 48" version="1.1" xmlns="http://www.w3.org/2000/svg" xmlns:xlink="http://www.w3.org/1999/xlink" xml:space="preserve" xmlns:serif="http://www.serif.com/" style="fill-rule:evenodd;clip-rule:evenodd;stroke-miterlimit:10;">
  <g id="icons" opacity="0.5">
    <path d="M18.909,37.957l0,-1.225c0,0 2.046,-1.532 2.046,-3.404l0,-1.498" style="fill:none;stroke:#202432;stroke-width:1.5px;" />
    <path d="M13.455,24.34l-2.728,2.179c-0.964,0.883 -1.363,1.386 -1.363,2.724l0,4.622l0,4.229" style="fill:none;stroke:#202432;stroke-width:1.5px;" />
    <path d="M8,40l0,-2.043l12.273,0l0,2.043" style="fill:none;stroke:#202432;stroke-width:1.5px;" />
    <path d="M11.884,31.285c0,0 4.199,-4.193 5.455,-5.447c1.255,-1.254 3.311,1.189 1.814,3.057c-0.735,0.734 -1.608,1.709 -1.608,1.709l0,1.362c0,2.67 -2.429,3.404 -2.83,3.404" style="fill:none;stroke:#202432;stroke-width:1.5px;" />
    <path d="M34.591,11.404l3.409,0l0,-0.681c0,-1.566 -1.221,-2.723 -2.727,-2.723l-2.728,0" style="fill:none;stroke:#202432;stroke-width:1.5px;" />
    <path d="M13.455,29.787l0,-18.383c0,-1.88 1.526,-3.404 3.409,-3.404l19.091,0c-1.883,0 -3.41,1.524 -3.41,3.404l0,21.107l-15,0" style="fill:none;stroke:#202432;stroke-width:1.5px;" />
    <path d="M17.545,14.128l10.91,0" style="fill:none;stroke:#202432;stroke-width:1.5px;" />
    <path d="M17.545,17.532l10.91,0" style="fill:none;stroke:#202432;stroke-width:1.5px;" />
    <path d="M17.545,20.936l6.819,0" style="fill:none;stroke:#202432;stroke-width:1.5px;" />
    <path d="M27.091,24.34l0.682,0.681l1.363,0l0,1.362l0.682,0.681l-0.682,0.681l0,1.361l-1.363,0l-0.682,0.681l-0.682,-0.681l-1.364,0l0,-1.361l-0.681,-0.681l0.681,-0.681l0,-1.362l1.364,0l0.682,-0.681Z" style="fill:none;stroke:#202432;stroke-width:1.5px;" />
  </g>
</svg>
