<svg width="100%" height="100%" viewBox="0 0 48 42" version="1.1" xmlns="http://www.w3.org/2000/svg" xmlns:xlink="http://www.w3.org/1999/xlink" xml:space="preserve" xmlns:serif="http://www.serif.com/" style="fill-rule:evenodd;clip-rule:evenodd;stroke-miterlimit:10;">
  <g id="icons" opacity="0.5">
    <path d="M12.958,21.789c0,0 1.798,-1.772 2.197,-2.165c0.399,-0.392 0.934,-0.561 0.824,-1.912c-0.111,-1.35 0.107,-2.912 1.027,-3.819l0.414,-0.408" style="fill:none;stroke:#202432;stroke-width:1.5px;" />
    <path d="M18.907,15.928l6.114,-6.024c0.745,-0.734 2.006,-0.67 2.679,0.035c2.016,2.111 7.248,7.767 6.235,8.766l-6.694,6.595c-1.161,1.145 -3.74,0.755 -4.318,1.324c-0.578,0.569 -2.529,2.492 -2.529,2.492" style="fill:none;stroke:#202432;stroke-width:1.5px;" />
    <path d="M21.386,30.092l-3.966,3.908l-9.42,-9.281l3.966,-3.907l9.42,9.28Z" style="fill:none;stroke:#202432;stroke-width:1.5px;" />
    <path d="M11.471,24.231l1.487,1.465" style="fill:none;stroke:#202432;stroke-width:1.5px;" />
    <path d="M32.292,20.324l0.496,0.488c0.446,0.439 0.798,0.623 1.983,0c1.15,-0.604 2.072,-0.889 2.479,-0.488l2.479,2.442c0.821,0.809 -0.237,3.163 -2.975,5.861c-2.738,2.698 -5.127,3.74 -5.949,2.931l-2.478,-2.442c-0.407,-0.402 -0.118,-1.31 0.495,-2.443c0.632,-1.167 0.446,-1.515 0,-1.954l-0.495,-0.488" style="fill:none;stroke:#202432;stroke-width:1.5px;" />
    <path d="M32.715,27.578c0.501,-0.4 1.024,-0.865 1.561,-1.393c2.738,-2.697 3.796,-5.052 2.974,-5.861" style="fill:none;stroke:#202432;stroke-width:1.5px;" />
    <path d="M28.327,29.115c0.532,0.525 1.726,0.271 3.246,-0.709" style="fill:none;stroke:#202432;stroke-width:1.5px;" />
    <path d="M23.369,11.532c0.647,-1.316 0.538,-2.335 -0.11,-2.973c-1.053,-1.038 -3.205,-0.6 -4.894,1.064c-1.689,1.664 -2.051,3.704 -0.998,4.742c0.648,0.637 1.691,0.734 3.027,0.097" style="fill:none;stroke:#202432;stroke-width:1.5px;" />
  </g>
</svg>
