<svg width="100%" height="100%" viewBox="0 0 48 43" version="1.1" xmlns="http://www.w3.org/2000/svg" xmlns:xlink="http://www.w3.org/1999/xlink" xml:space="preserve" xmlns:serif="http://www.serif.com/" style="fill-rule:evenodd;clip-rule:evenodd;stroke-miterlimit:10;">
  <g id="icons" opacity="0.5">
    <path d="M34.43,13.042c-0.789,0.313 -1.75,0.497 -2.785,0.497" style="fill:none;stroke:#202432;stroke-width:1.5px;" />
    <path d="M34.43,18.239l0,-5.199c1.261,-0.501 2.089,-1.331 2.089,-2.271c0,-1.529 -2.182,-2.769 -4.874,-2.769c-2.692,0 -4.874,1.24 -4.874,2.769c0,0.94 0.827,1.77 2.089,2.271l0,5.199c0,1.326 -0.9,2.227 -2.176,2.691c-1.237,0.449 -2.002,1.264 -2.002,2.137l0,3.894c0,1.763 3.117,3.193 6.963,3.193c3.845,0 6.962,-1.43 6.962,-3.193l0,-3.894c0,-0.873 -0.764,-1.688 -2.001,-2.137c-1.277,-0.464 -2.176,-1.365 -2.176,-2.691Z" style="fill:none;stroke:#202432;stroke-width:1.5px;" />
    <path d="M26.879,25.755c1.246,0.581 2.922,0.937 4.766,0.937c3.845,0 6.963,-1.549 6.963,-3.462" style="fill:none;stroke:#202432;stroke-width:1.5px;" />
    <path d="M25.378,12.846l-11.357,0l-6.049,22.154l32.028,0l-0.943,-3.457" style="fill:none;stroke:#202432;stroke-width:1.5px;" />
    <path d="M16.327,16.308l9.748,0" style="fill:none;stroke:#202432;stroke-width:1.5px;" />
    <path d="M15.631,19.077l9.747,0" style="fill:none;stroke:#202432;stroke-width:1.5px;" />
  </g>
</svg>
