<svg width="100%" height="100%" viewBox="0 0 17 10" version="1.1" xmlns="http://www.w3.org/2000/svg" xmlns:xlink="http://www.w3.org/1999/xlink" xml:space="preserve" xmlns:serif="http://www.serif.com/" style="fill-rule:evenodd;clip-rule:evenodd;stroke-linejoin:round;stroke-miterlimit:1.41421;">
  <g id="Var1">
    <path d="M8.668,9.958l0.956,0c0,0 0.289,-0.035 0.437,-0.209c0.136,-0.16 0.131,-0.46 0.131,-0.46c0,0 -0.018,-1.406 0.577,-1.613c0.587,-0.204 1.341,1.359 2.14,1.96c0.605,0.454 1.064,0.355 1.064,0.355l2.136,-0.033c0,0 1.118,-0.075 0.588,-1.038c-0.043,-0.079 -0.309,-0.712 -1.589,-2.014c-1.34,-1.362 -1.16,-1.142 0.454,-3.499c0.983,-1.435 1.376,-2.311 1.253,-2.686c-0.117,-0.358 -0.84,-0.263 -0.84,-0.263l-2.406,0.016c0,0 -0.178,-0.026 -0.311,0.06c-0.129,0.085 -0.212,0.283 -0.212,0.283c0,0 -0.381,1.11 -0.888,2.055c-1.072,1.993 -1.5,2.098 -1.675,1.974c-0.408,-0.288 -0.306,-1.158 -0.306,-1.776c0,-1.932 0.268,-2.737 -0.52,-2.946c-0.262,-0.069 -0.455,-0.114 -1.123,-0.122c-0.859,-0.009 -1.585,0.003 -1.997,0.224c-0.273,0.147 -0.485,0.474 -0.356,0.493c0.159,0.023 0.519,0.106 0.71,0.391c0.247,0.367 0.238,1.192 0.238,1.192c0,0 0.142,2.274 -0.331,2.556c-0.324,0.194 -0.769,-0.201 -1.724,-2.01c-0.489,-0.926 -0.859,-1.949 -0.859,-1.949c0,0 -0.071,-0.192 -0.198,-0.294c-0.154,-0.124 -0.37,-0.164 -0.37,-0.164l-2.286,0.017c0,0 -0.343,0.01 -0.469,0.174c-0.112,0.145 -0.009,0.446 -0.009,0.446c0,0 1.79,4.588 3.816,6.899c1.859,2.12 3.969,1.981 3.969,1.981" style="fill:#ffd24c;" />
  </g>
</svg>
